<svg width="299" height="276" viewBox="0 0 299 276" fill="none" xmlns="http://www.w3.org/2000/svg">
<g filter="url(#filter0_f_26_959)">
<path d="M215.501 79.6818C215.501 92.311 211.277 104.342 203.607 113.559C198.322 119.908 192.703 123.613 186.87 124.692L188.157 86.2368C195.291 83.7453 200.536 77.1508 201.055 69.33C201.544 66.7511 203.103 64.4947 205.346 63.1233C207.631 61.7286 210.408 61.3838 212.965 62.1777C214.482 62.6497 215.501 64.0351 215.501 65.6229V79.6818ZM100.055 113.559C92.3845 104.342 88.16 92.311 88.16 79.6818V65.6229C88.16 64.0351 89.1796 62.6502 90.6975 62.1777C91.6011 61.8966 92.5338 61.7572 93.4613 61.7572C95.1571 61.7572 96.8394 62.2215 98.3158 63.1233C100.56 64.4947 102.117 66.7511 102.608 69.33C103.126 77.1519 108.372 83.7459 115.505 86.2373L116.793 124.692C110.957 123.613 105.34 119.909 100.055 113.559ZM214.625 56.8432C210.534 55.5692 206.09 56.1216 202.433 58.3557C198.777 60.5899 196.259 64.2929 195.524 68.5157L195.487 68.8348C195.212 73.6653 192.396 77.8478 188.364 80.0558L188.913 63.6618C190.949 63.3065 192.5 61.5413 192.5 59.4034C194.893 59.4034 196.834 57.4632 196.834 55.0698C196.834 52.6764 194.893 50.7363 192.5 50.7363H111.163C108.769 50.7363 106.829 52.6764 106.829 55.0698C106.829 57.4632 108.769 59.4034 111.163 59.4034C111.163 61.5413 112.714 63.3065 114.749 63.6618L115.298 80.0563C111.266 77.8484 108.451 73.6653 108.175 68.8348L108.139 68.5157C107.404 64.2929 104.885 60.5899 101.229 58.3557C97.5732 56.1216 93.1311 55.5709 89.0373 56.8432C85.1716 58.0466 82.5728 61.5752 82.5728 65.6229V79.6818C82.5728 93.6148 87.2564 106.914 95.7608 117.133C101.671 124.236 108.092 128.554 114.905 130.047C114.795 130.416 114.73 130.806 114.73 131.213V131.602C114.73 133.273 115.725 134.704 117.15 135.358L117.163 135.741H118.869H119.942C123.964 147.28 133.085 156.064 144.331 158.814V163.251C144.331 165.578 145.93 167.515 148.085 168.068V176.955C143.794 177.279 140.151 179.89 138.359 183.576H135.717C132.452 183.576 129.806 186.223 129.806 189.487C129.806 190.44 130.053 191.326 130.453 192.123C124.979 193.157 120.836 197.957 120.836 203.732H182.827C182.827 197.957 178.683 193.157 173.209 192.123C173.61 191.326 173.856 190.44 173.856 189.487C173.856 186.223 171.21 183.576 167.945 183.576H165.303C163.511 179.89 159.869 177.279 155.578 176.955V168.068C157.732 167.515 159.331 165.578 159.331 163.251V158.814C170.577 156.064 179.698 147.28 183.72 135.741H184.793H186.5L186.512 135.358C187.937 134.704 188.933 133.273 188.933 131.602V131.213C188.933 130.806 188.868 130.416 188.758 130.047C195.569 128.553 201.99 124.235 207.901 117.133C216.405 106.915 221.089 93.6148 221.089 79.6818V65.6229C221.089 61.5752 218.491 58.0466 214.625 56.8432Z" fill="url(#paint0_linear_26_959)" stroke="#5A2E56"/>
<path d="M278.402 168.334C278.402 168.334 277.077 170.125 274.967 171.806C275.01 171.684 275.057 171.564 275.1 171.442L275.734 169.376C277.264 168.64 278.402 168.334 278.402 168.334ZM267.896 188.427C268.24 187.744 268.583 187.063 268.916 186.375C270.204 186.014 271.09 185.903 271.09 185.903C271.09 185.903 269.833 187.171 267.896 188.427ZM258.368 204.338C258.83 203.694 259.283 203.039 259.735 202.386C261.105 202.199 262.031 202.21 262.031 202.21C262.031 202.21 260.547 203.34 258.368 204.338ZM246.289 219.042C246.928 218.362 247.565 217.68 248.193 216.984C250.11 216.898 251.458 217.101 251.458 217.101C251.458 217.101 249.237 218.356 246.289 219.042ZM239.428 230.417C239.428 230.417 236.681 231.525 233.305 231.707C233.007 231.723 232.732 231.714 232.446 231.715C232.764 231.449 233.079 231.182 233.402 230.92C233.859 230.535 234.328 230.153 234.791 229.771C237.452 229.836 239.428 230.417 239.428 230.417ZM225.971 241.995C225.971 241.995 223.08 242.726 219.668 242.442C218.756 242.365 217.925 242.218 217.159 242.052C218.036 241.542 218.911 241.032 219.796 240.517C219.839 240.519 219.877 240.517 219.922 240.52C223.333 240.804 225.971 241.995 225.971 241.995ZM215.251 238.411C214.778 238.68 214.299 238.954 213.83 239.221C213.608 238.306 213.408 237.23 213.317 236.053C213.052 232.641 213.799 229.752 213.799 229.752C213.799 229.752 214.975 232.398 215.24 235.812C215.312 236.746 215.295 237.605 215.251 238.411ZM211.229 251.666C211.229 251.666 208.243 251.996 204.86 251.237C203.39 250.906 202.119 250.429 201.117 249.989C201.451 249.863 201.773 249.742 202.111 249.614C202.557 249.434 202.997 249.216 203.439 249.018C204.049 249.093 204.689 249.195 205.349 249.343C208.731 250.103 211.229 251.666 211.229 251.666ZM200.486 245.677C200.089 245.821 199.712 245.96 199.318 246.103C199.274 245.424 199.247 244.709 199.281 243.941C199.434 240.478 200.534 237.683 200.534 237.683C200.534 237.683 201.39 240.502 201.237 243.966C201.215 244.471 201.153 244.938 201.097 245.407C200.893 245.493 200.691 245.596 200.486 245.677ZM186.352 250.037C186.33 250.167 186.294 250.277 186.269 250.404C185.592 250.589 184.916 250.773 184.248 250.954C184.29 250.555 184.331 250.156 184.401 249.739C184.986 246.278 186.435 243.622 186.435 243.622C186.435 243.622 186.936 246.576 186.352 250.037ZM189.788 256.021C193.073 257.257 195.373 259.179 195.373 259.179C195.373 259.179 192.349 259.093 189.064 257.855C187.086 257.11 185.504 256.136 184.528 255.463C185.049 255.318 185.59 255.165 186.117 255.016C187.179 255.211 188.459 255.518 189.788 256.021ZM173.429 260.202C176.544 261.911 178.592 264.169 178.592 264.169C178.592 264.169 175.587 263.657 172.472 261.948C171.26 261.283 170.238 260.547 169.408 259.882C170.09 259.682 170.782 259.477 171.482 259.271C172.109 259.532 172.764 259.838 173.429 260.202ZM168.863 253.12C169.888 249.718 171.674 247.249 171.674 247.249C171.674 247.249 171.795 250.293 170.769 253.695C170.643 254.11 170.493 254.478 170.349 254.861C169.664 255.057 168.992 255.249 168.323 255.44C168.454 254.705 168.617 253.933 168.863 253.12ZM275.681 138.322C273.169 136.456 271.541 134.131 271.541 134.131C271.541 134.131 273.986 134.831 276.499 136.697C277.335 137.317 278.038 137.976 278.65 138.596C278.65 138.607 278.649 138.619 278.649 138.631C278.621 139.103 278.596 139.576 278.568 140.048C277.722 139.643 276.719 139.092 275.681 138.322ZM280.105 151.761C281.965 150.315 283.589 149.624 283.589 149.624C283.589 149.624 282.232 152.141 279.92 154.309C279.787 154.434 279.657 154.533 279.524 154.649C279.731 153.689 279.94 152.73 280.105 151.761ZM277.077 121.809C274.385 120.293 272.487 118.21 272.487 118.21C272.487 118.21 274.953 118.583 277.645 120.099C278.056 120.33 278.425 120.58 278.794 120.828C278.832 121.424 278.878 122.018 278.911 122.616C278.911 122.64 278.912 122.663 278.912 122.686C278.328 122.445 277.717 122.169 277.077 121.809ZM275.769 105.616C272.948 104.463 270.817 102.649 270.817 102.649C270.817 102.649 273.261 102.705 276.083 103.858C276.282 103.94 276.455 104.037 276.647 104.124C276.773 104.767 276.893 105.413 277.011 106.061C276.609 105.933 276.195 105.791 275.769 105.616ZM271.845 89.9567C268.943 89.1674 266.619 87.6432 266.619 87.6432C266.619 87.6432 269.002 87.3987 271.905 88.1874C272.107 88.2428 272.283 88.3157 272.479 88.377C272.685 88.9912 272.882 89.6131 273.079 90.2337C272.682 90.1585 272.272 90.0727 271.845 89.9567ZM265.658 75.0146C262.721 74.5847 260.246 73.3643 260.246 73.3643C260.246 73.3643 262.532 72.8411 265.469 73.271C265.788 73.3171 266.08 73.3912 266.383 73.4536C266.659 74.0177 266.934 74.5817 267.193 75.1592C266.708 75.1353 266.199 75.0939 265.658 75.0146ZM257.467 60.9708C254.54 60.8921 251.954 59.985 251.954 59.985C251.954 59.985 254.114 59.2063 257.042 59.2856C257.501 59.2978 257.937 59.3445 258.37 59.3912C258.696 59.8917 259.025 60.3869 259.346 60.8985C258.766 60.9522 258.15 60.9895 257.467 60.9708ZM251.704 46.6197C251.314 46.1378 250.922 45.6572 250.526 45.1923C250.238 44.3855 249.952 43.465 249.763 42.4593C249.227 39.6197 249.649 37.4117 249.649 37.4117C249.649 37.4117 250.939 39.8081 251.475 42.6478C251.787 44.3021 251.77 45.7062 251.704 46.6197ZM247.427 48.0027C244.549 48.2617 241.892 47.6749 241.892 47.6749C241.892 47.6749 243.901 46.6663 246.779 46.4068C247.399 46.3502 248.004 46.3367 248.579 46.3455C248.611 46.3805 248.641 46.4149 248.674 46.4493C248.999 46.832 249.318 47.2362 249.639 47.6317C248.985 47.7875 248.252 47.9281 247.427 48.0027ZM239.365 33.7379C238.917 33.3582 238.508 33.0093 238.072 32.6389C237.769 32.0165 237.471 31.3515 237.223 30.6182C236.309 27.918 236.421 25.7218 236.421 25.7218C236.421 25.7218 238.015 27.904 238.93 30.6043C239.383 31.9407 239.583 33.1487 239.67 34.0319C239.571 33.9368 239.463 33.833 239.365 33.7379ZM235.688 36.2795C232.898 36.864 230.208 36.5986 230.208 36.5986C230.208 36.5986 232.043 35.3864 234.834 34.8019C235.578 34.6462 236.291 34.5651 236.971 34.5091C237.292 34.7856 237.591 35.0428 237.92 35.3252C237.993 35.3957 238.074 35.4745 238.147 35.5457C237.458 35.8146 236.63 36.0823 235.688 36.2795ZM224.22 22.017C224.2 22.003 224.183 21.9925 224.164 21.9797C223.811 21.4465 223.458 20.8766 223.141 20.2489C221.873 17.7382 221.685 15.5957 221.685 15.5957C221.685 15.5957 223.552 17.5242 224.82 20.0348C225.426 21.2353 225.779 22.3396 225.989 23.1767C225.383 22.7794 224.769 22.3769 224.22 22.017ZM222.402 25.9166C219.735 26.8102 217.052 26.8686 217.052 26.8686C217.052 26.8686 218.692 25.4779 221.359 24.5848C222.118 24.3305 222.853 24.1625 223.551 24.026C223.954 24.2931 224.382 24.5778 224.814 24.8648C224.154 25.2218 223.35 25.5992 222.402 25.9166ZM211.685 18.0597C207.847 16.8195 205.082 14.7376 205.082 14.7376C205.082 14.7376 208.542 14.6676 212.381 15.9077C214.015 16.4351 215.445 17.1135 216.558 17.7201L215.803 18.9889C214.607 18.8221 213.181 18.5427 211.685 18.0597ZM281.619 138.76C281.646 138.045 281.674 137.337 281.701 136.624C281.863 136.399 282.002 136.176 282.179 135.953C284.126 133.504 286.31 132.198 286.31 132.198C286.31 132.198 285.335 134.863 283.388 137.313C282.787 138.068 282.169 138.701 281.596 139.234C281.602 139.076 281.61 138.918 281.619 138.76ZM283.046 118.625C284.596 115.953 286.531 114.38 286.531 114.38C286.531 114.38 285.954 117.138 284.405 119.81C283.491 121.386 282.465 122.549 281.76 123.262C281.751 122.998 281.737 122.735 281.732 122.47C281.713 122.179 281.687 121.892 281.667 121.603C281.999 120.705 282.443 119.665 283.046 118.625ZM278.939 157.372C281.764 157.076 285.808 156.051 287.992 152.729C291.572 147.288 293.175 140.122 293.175 140.122C293.175 140.122 284.694 141.095 281.114 146.536C280.978 146.743 280.854 146.949 280.724 147.155L280.742 147.008L281.263 142.867L281.521 140.802C281.522 140.786 281.522 140.769 281.524 140.753C284.121 140.297 289.026 138.895 290.995 134.682C293.728 128.831 294.316 121.539 294.316 121.539C294.316 121.539 286.23 123.623 283.496 129.475C282.834 130.893 282.28 132.296 281.818 133.611C281.856 132.623 281.896 131.628 281.933 130.644C282.019 128.292 281.866 126.063 281.778 123.814C283.248 123.47 289.779 121.657 291.413 116.224C293.255 110.092 292.82 102.816 292.82 102.816C292.82 102.816 285.272 105.925 283.43 112.057C282.346 115.663 281.865 119.1 281.648 121.334C281.322 116.568 280.797 111.864 279.957 107.282C280.164 107.191 280.327 107.114 280.416 107.07C281.285 106.76 288.025 104.168 288.898 98.2954C289.831 92.0158 288.396 84.8968 288.396 84.8968C288.396 84.8968 281.509 88.9177 280.575 95.1973C279.991 99.1208 280.038 102.788 280.155 104.989C280.352 104.031 280.654 102.882 281.117 101.722C282.248 98.8916 283.906 97.0955 283.906 97.0955C283.906 97.0955 283.729 99.8879 282.599 102.719C281.846 104.602 280.862 106.023 280.287 106.767C280.168 106.754 280.004 106.728 279.86 106.708C279.857 106.689 279.854 106.669 279.85 106.65C278.885 101.307 277.583 96.1312 276.027 91.1572C276.282 91.0037 276.468 90.8836 276.564 90.8188C277.365 90.4058 283.552 87.0295 283.581 81.1425C283.613 74.8477 281.226 68.0175 281.226 68.0175C281.226 68.0175 275.094 72.8189 275.062 79.1137C275.042 83.0459 275.599 86.6503 276.02 88.8017C276.077 87.8351 276.21 86.6667 276.499 85.4685C277.203 82.5442 278.564 80.5737 278.564 80.5737C278.564 80.5737 278.783 83.3434 278.078 86.2677C277.609 88.2137 276.851 89.7332 276.396 90.5353C276.237 90.5377 276.026 90.5324 275.823 90.5283C274.424 86.1376 272.834 81.9002 271.081 77.8636C270.722 77.1006 270.386 76.3382 270.045 75.5757C270.19 75.4562 270.309 75.3558 270.374 75.2992C271.096 74.7982 276.652 70.7475 275.863 64.9637C275.019 58.7798 271.743 52.3579 271.743 52.3579C271.743 52.3579 266.438 57.8016 267.283 63.9861C267.81 67.8495 268.854 71.3215 269.564 73.383C269.484 72.4275 269.452 71.2649 269.566 70.0545C269.846 67.0988 270.896 65.0022 270.896 65.0022C270.896 65.0022 271.495 67.6961 271.215 70.6512C271.029 72.6171 270.502 74.1991 270.17 75.0414C270.073 75.0542 269.935 75.0665 269.821 75.0793C269.266 73.8427 268.706 72.6188 268.083 71.4417C266.987 69.3883 265.907 67.3659 264.845 65.3767C263.896 63.8239 262.963 62.2973 262.026 60.7976C262.056 60.7637 262.092 60.7241 262.112 60.7013C262.749 60.1273 267.615 55.5149 266.044 49.9441C264.364 43.9877 260.277 38.0808 260.277 38.0808C260.277 38.0808 255.848 44.0279 257.528 49.9843C258.578 53.7054 260.078 56.9832 261.056 58.9192C260.848 57.9935 260.654 56.8583 260.598 55.6602C260.463 52.7342 261.198 50.5583 261.198 50.5583C261.198 50.5583 262.155 53.1268 262.291 56.0522C262.382 57.9993 262.087 59.6099 261.878 60.4721C261.865 60.4756 261.845 60.4797 261.831 60.4832C260.51 58.3797 259.175 56.3415 257.75 54.4375C257.146 53.5852 256.547 52.7417 255.955 51.907C255.344 51.0874 254.686 50.3168 254.065 49.5328C253.384 48.7004 252.722 47.8715 252.064 47.0542C252.927 46.0031 256.487 41.2186 254.31 36.2544C251.844 30.6346 247.029 25.3403 247.029 25.3403C247.029 25.3403 243.511 31.6531 245.976 37.2729C247.259 40.1989 248.801 42.7772 249.989 44.5879C247.541 41.9419 245.307 39.3286 242.913 37.1545C241.996 36.2719 241.124 35.4319 240.252 34.5919C241.119 33.1272 243.498 28.3788 240.839 24.0592C237.65 18.8763 232.197 14.2814 232.197 14.2814C232.197 14.2814 229.606 20.8281 232.795 26.0099C234.109 28.1449 235.551 30.0472 236.8 31.5568C236.496 31.2984 236.17 31.0207 235.873 30.7687C233.679 28.8157 231.497 27.2081 229.529 25.7527C228.55 25.0206 227.622 24.3276 226.749 23.6754C226.734 23.6655 226.722 23.6579 226.706 23.6474C227.388 22.0152 228.941 17.2558 225.807 13.4659C221.961 8.81558 215.968 5 215.968 5C215.968 5 214.309 11.6494 218.155 16.3003C219.647 18.104 221.203 19.6633 222.579 20.9425C221.711 20.3749 220.905 19.847 220.23 19.4048C219 18.6727 218.099 18.1343 217.52 17.789C215.975 14.7143 212.021 8.10101 206.052 6.87718C198.227 5.27184 189.776 6.96932 189.776 6.96932C189.776 6.96932 195.849 16.8656 203.675 18.4709C209.061 19.5752 213.939 19.5868 216.458 19.4865C217.019 19.8248 217.907 20.3597 219.12 21.0912C220.199 21.8058 221.53 22.6878 223.097 23.7244C223.114 23.7367 223.137 23.7513 223.155 23.7635C221.026 23.6352 218.11 23.578 215.038 23.8854C209.034 24.488 205.536 30.382 205.536 30.382C205.536 30.382 212.481 31.8835 218.485 31.2815C222.64 30.865 224.882 27.5767 225.87 25.5887C226.647 26.1773 227.454 26.7881 228.316 27.4408C230.228 28.8717 232.348 30.4479 234.502 32.3869C235.16 32.9528 235.865 33.5594 236.555 34.1515C234.461 33.7747 231.635 33.3862 228.615 33.329C222.531 33.2147 218.208 38.7715 218.208 38.7715C218.208 38.7715 224.936 41.1346 231.02 41.2489C235.143 41.3265 237.816 38.3923 239.115 36.4883C239.866 37.2192 240.607 37.9414 241.391 38.705C243.66 40.784 245.778 43.2713 248.081 45.7972C246.097 45.2062 243.526 44.5605 240.756 44.1784C234.676 43.3402 229.563 48.4472 229.563 48.4472C229.563 48.4472 235.971 51.6363 242.05 52.474C245.995 53.0177 249.001 50.6073 250.628 48.8468C251.175 49.5357 251.723 50.2322 252.288 50.9299C252.894 51.7034 253.537 52.4635 254.134 53.2714C254.71 54.0945 255.293 54.9269 255.882 55.7675C256.553 56.6734 257.201 57.6132 257.839 58.5698C256.017 57.8045 253.761 56.968 251.308 56.3269C245.32 54.763 239.46 59.3054 239.46 59.3054C239.46 59.3054 245.445 63.2773 251.433 64.8412C255.139 65.8096 258.363 63.9686 260.288 62.4233C261.12 63.7784 261.949 65.151 262.792 66.5463C263.796 68.4509 264.818 70.3899 265.854 72.3552C264.223 71.4446 262.262 70.4582 260.116 69.6129C254.308 67.3257 247.762 71.1873 247.762 71.1873C247.762 71.1873 253.223 75.8931 259.03 78.1809C262.475 79.5372 265.843 78.2492 268.018 76.9769C268.291 77.5964 268.559 78.2147 268.847 78.8337C269.983 81.4767 271.033 84.2143 272.009 87.0167C270.575 85.9877 268.886 84.8805 267.025 83.8707C261.49 80.8707 254.332 83.9367 254.332 83.9367C254.332 83.9367 259.171 89.3156 264.705 92.3162C267.887 94.0417 271.353 93.2682 273.728 92.3005C274.739 95.6821 275.618 99.1605 276.361 102.714C275.055 101.501 273.515 100.184 271.767 98.9348C266.603 95.2428 258.924 97.4012 258.924 97.4012C258.924 97.4012 263.046 103.38 268.212 107.072C271.198 109.208 274.839 108.856 277.381 108.182C278.022 111.979 278.45 115.855 278.726 119.78C277.469 118.211 275.885 116.396 273.98 114.635C269.279 110.287 261.198 111.44 261.198 111.44C261.198 111.44 264.517 117.929 269.217 122.277C272.155 124.993 276.274 124.919 278.957 124.482C279.026 126.507 279.131 128.557 279.038 130.518C278.914 133.086 278.79 135.668 278.667 138.259C277.567 136.288 275.835 133.493 273.558 130.775C269.41 125.825 261.061 125.893 261.061 125.893C261.061 125.893 263.505 132.788 267.653 137.739C270.678 141.348 275.87 141.395 278.466 141.157L278.261 142.657L277.716 146.649L277.174 150.652C276.984 151.986 276.608 153.303 276.334 154.631C276.142 155.436 275.969 156.247 275.792 157.056C274.898 156.568 273.426 155.661 271.972 154.265C269.683 152.07 268.355 149.539 268.355 149.539C268.355 149.539 270.736 150.567 273.025 152.762C273.962 153.661 274.735 154.614 275.324 155.429C274.531 153.335 273.061 149.903 270.864 146.48C267.345 140.998 258.875 139.931 258.875 139.931C258.875 139.931 260.398 147.113 263.917 152.595C267.027 157.44 274.097 157.522 275.698 157.476C275.324 159.185 274.947 160.893 274.475 162.58L272.006 170.378C271.924 170.604 271.834 170.828 271.751 171.053C271.258 171.836 270.832 172.553 270.497 173.146C270.707 172.933 270.97 172.701 271.215 172.475C270.969 173.127 270.727 173.782 270.471 174.431C270.154 174.56 269.871 174.667 269.636 174.749C268.811 174.164 267.358 173.016 266.011 171.355C263.988 168.861 262.982 166.164 262.982 166.164C262.982 166.164 265.256 167.511 267.279 170.006C268.109 171.028 268.764 172.081 269.252 172.971C268.729 170.783 267.701 167.17 265.933 163.467C263.105 157.538 254.667 155.317 254.667 155.317C254.667 155.317 255.247 162.663 258.077 168.593C260.722 174.137 268.582 174.992 269.589 175.08C269.7 175.101 269.904 175.137 270.165 175.178C268.605 179.064 266.875 182.875 264.978 186.586C263.953 187.731 263.088 188.79 262.465 189.603C262.896 189.277 263.399 188.928 263.945 188.581C263.557 189.307 263.156 190.024 262.755 190.74C262.227 190.888 261.744 191.009 261.387 191.08C260.628 190.384 259.305 189.043 258.158 187.206C256.434 184.447 255.766 181.626 255.766 181.626C255.766 181.626 257.892 183.279 259.617 186.038C260.323 187.168 260.851 188.305 261.228 189.259C260.983 187.009 260.411 183.275 259.103 179.348C257.009 173.062 248.758 169.694 248.758 169.694C248.758 169.694 248.392 177.082 250.486 183.369C252.444 189.248 260.289 191.177 261.296 191.403C261.45 191.454 261.784 191.559 262.232 191.681C260.733 194.312 259.155 196.889 257.477 199.385C256.711 200.489 255.893 201.539 255.099 202.616C254.203 203.402 253.443 204.122 252.848 204.713C253.185 204.524 253.585 204.329 253.981 204.136C253.533 204.73 253.106 205.349 252.649 205.934C252.237 205.982 251.864 206.018 251.572 206.035C250.893 205.238 249.725 203.719 248.797 201.732C247.401 198.747 247.08 195.844 247.08 195.844C247.08 195.844 249.023 197.783 250.418 200.77C250.989 201.993 251.379 203.197 251.641 204.198C251.677 201.924 251.569 198.126 250.74 194.034C249.415 187.484 241.5 182.995 241.5 182.995C241.5 182.995 240.2 190.305 241.526 196.855C242.764 202.982 250.45 205.98 251.441 206.344C251.557 206.401 251.775 206.504 252.073 206.633C248.44 211.221 244.558 215.503 240.495 219.485C240.478 219.483 240.454 219.483 240.437 219.482C239.85 218.593 238.858 216.917 238.165 214.806C237.125 211.635 237.158 208.695 237.158 208.695C237.158 208.695 238.879 210.896 239.919 214.068C240.346 215.366 240.591 216.623 240.732 217.659C241.048 215.393 241.405 211.587 241.071 207.39C240.539 200.67 233.105 195.104 233.105 195.104C233.105 195.104 230.897 202.22 231.43 208.941C231.922 215.152 239.134 219.175 240.221 219.747C239.088 220.85 237.969 221.975 236.809 223.028C234.881 224.695 232.881 226.251 230.951 227.845C229.969 228.623 229.037 229.454 228.029 230.176C227.903 230.263 227.778 230.35 227.651 230.436C227.199 229.411 226.661 227.969 226.327 226.294C225.663 222.979 226.053 220.043 226.053 220.043C226.053 220.043 227.518 222.481 228.182 225.796C228.454 227.154 228.547 228.443 228.564 229.499C229.156 227.277 229.976 223.52 230.151 219.276C230.43 212.485 223.622 205.895 223.622 205.895C223.622 205.895 220.536 212.707 220.258 219.5C220.039 224.827 224.875 229.239 226.975 230.898C226.308 231.355 225.639 231.814 224.977 232.268C222.932 233.624 220.997 235.101 218.93 236.314C217.847 236.932 216.791 237.534 215.722 238.143C216.517 235.972 217.452 232.957 218.006 229.552C219.109 222.783 213.07 215.24 213.07 215.24C213.07 215.24 209.147 221.64 208.045 228.408C207.286 233.067 210.527 237.558 212.622 239.91C210.673 241.101 208.587 241.962 206.585 242.914C205.078 243.59 203.611 244.292 202.137 244.95C203.035 243.055 204.009 240.695 204.774 238.066C206.706 231.426 201.582 223.014 201.582 223.014C201.582 223.014 196.869 228.893 194.937 235.533C193.751 239.607 195.764 243.985 197.498 246.768C196.467 247.146 195.417 247.529 194.405 247.899C193.41 248.263 192.425 248.624 191.449 248.98C190.456 249.284 189.456 249.532 188.475 249.805C188.265 249.862 188.067 249.915 187.859 249.973C188.787 248.42 189.759 246.603 190.622 244.601C193.381 238.195 189.312 229.02 189.312 229.02C189.312 229.02 183.87 234.271 181.11 240.676C179.551 244.295 180.671 248.553 181.94 251.581C180.314 252.022 178.521 252.518 177.021 252.96C175.23 253.47 173.486 253.967 171.788 254.451C173.05 252.897 174.44 250.999 175.722 248.823C179.293 242.763 176.412 232.953 176.412 232.953C176.412 232.953 170.314 237.472 166.743 243.533C164.436 247.447 165.51 252.706 166.56 255.941C160.16 257.736 154.56 259.241 149.941 260.394C145.29 261.548 141.61 262.383 139.177 262.768C138.549 262.897 138.064 262.919 137.61 262.987C137.17 263.04 136.757 263.105 136.592 263.077C136.171 263.074 135.952 263.098 135.952 263.098L135.315 267.936C135.315 267.936 135.789 267.939 136.704 267.947C137.211 267.959 137.62 267.883 138.16 267.815C138.682 267.737 139.342 267.683 139.983 267.545C142.664 267.092 146.389 266.206 151.11 264.99C155.823 263.768 161.498 262.186 167.979 260.304C168.061 260.28 168.152 260.254 168.236 260.229C169.478 263.075 172.587 268.908 177.676 270.275C184.47 272.098 191.987 271.051 191.987 271.051C191.987 271.051 187.171 262.032 180.377 260.209C177.616 259.469 175.001 259.075 172.856 258.865C174.615 258.347 176.421 257.813 178.279 257.265C180.163 256.7 181.747 256.238 183.768 255.678C183.849 255.655 183.934 255.631 184.014 255.609C184.838 257.16 189.045 264.508 195.236 265.262C202.16 266.105 209.437 264.047 209.437 264.047C209.437 264.047 203.56 255.911 196.636 255.069C192.37 254.549 188.518 254.761 186.183 254.999C187.359 254.667 188.52 254.341 189.726 254.001C190.737 253.708 191.77 253.441 192.794 253.118C193.8 252.74 194.817 252.357 195.843 251.972C197.236 251.45 198.67 250.909 200.097 250.372C201.752 252.519 206.34 257.731 211.838 257.631C218.753 257.507 225.659 254.498 225.659 254.498C225.659 254.498 218.884 247.349 211.97 247.475C209.616 247.517 207.423 247.762 205.538 248.065C206.483 247.611 207.428 247.147 208.392 246.703C210.5 245.677 212.699 244.749 214.743 243.46C215.033 243.29 215.332 243.117 215.622 242.947C217.906 245.045 222.496 248.508 227.284 247.757C234.057 246.694 240.479 242.807 240.479 242.807C240.479 242.807 232.972 236.726 226.196 237.79C225.152 237.954 224.144 238.154 223.184 238.375C224.546 237.443 225.895 236.478 227.283 235.539C228.302 234.826 229.327 234.108 230.357 233.388C233.019 235.085 237.324 237.121 241.394 235.896C247.905 233.936 253.735 229.254 253.735 229.254C253.735 229.254 245.661 224.298 239.15 226.257C239.052 226.288 238.958 226.321 238.86 226.35C239.036 226.198 239.218 226.054 239.393 225.899C240.889 224.519 242.354 223.084 243.801 221.621C246.603 222.799 250.566 223.808 254.028 222.226C260.159 219.423 265.303 214.032 265.303 214.032C265.303 214.032 257.974 210.764 252.015 212.558C253.291 211.022 254.546 209.463 255.766 207.863C258.569 208.533 262.206 208.789 265.153 206.916C270.794 203.331 275.162 197.328 275.162 197.328C275.162 197.328 268.486 195.341 263.039 197.245C264.012 195.633 264.944 193.994 265.849 192.335C268.633 192.595 272.116 192.33 274.705 190.128C279.752 185.834 283.264 179.324 283.264 179.324C283.264 179.324 276.472 178.252 271.4 180.903C272.182 179.085 272.94 177.255 273.648 175.404C276.462 175.355 280.079 174.696 282.447 172.023C286.803 167.106 289.388 160.204 289.388 160.204C289.388 160.204 281.996 160.049 277.424 163.866L277.561 163.42C278.099 161.423 278.513 159.395 278.939 157.372Z" fill="url(#paint1_linear_26_959)" stroke="#5A2E56"/>
<path d="M128.966 254.861C128.822 254.478 128.671 254.11 128.546 253.695C127.52 250.293 127.642 247.249 127.642 247.249C127.642 247.249 129.427 249.718 130.453 253.12C130.698 253.933 130.861 254.705 130.992 255.44C130.324 255.249 129.65 255.057 128.966 254.861ZM126.843 261.948C123.728 263.657 120.724 264.169 120.724 264.169C120.724 264.169 122.771 261.911 125.886 260.202C126.552 259.838 127.207 259.532 127.834 259.271C128.534 259.477 129.225 259.682 129.907 259.882C129.078 260.547 128.056 261.283 126.843 261.948ZM113.046 250.404C113.022 250.277 112.986 250.167 112.964 250.037C112.379 246.576 112.88 243.622 112.88 243.622C112.88 243.622 114.329 246.278 114.915 249.739C114.985 250.156 115.024 250.555 115.066 250.954C114.4 250.773 113.723 250.589 113.046 250.404ZM110.251 257.855C106.967 259.093 103.943 259.179 103.943 259.179C103.943 259.179 106.242 257.257 109.526 256.021C110.856 255.518 112.137 255.211 113.198 255.016C113.725 255.165 114.266 255.318 114.787 255.463C113.811 256.136 112.229 257.11 110.251 257.855ZM99.997 246.103C99.6032 245.96 99.2253 245.821 98.8298 245.677C98.6244 245.596 98.422 245.493 98.2184 245.407C98.1618 244.938 98.1012 244.471 98.0784 243.966C97.9262 240.502 98.7802 237.683 98.7802 237.683C98.7802 237.683 99.8815 240.478 100.034 243.941C100.068 244.709 100.042 245.424 99.997 246.103ZM94.4548 251.237C91.0726 251.996 88.0865 251.666 88.0865 251.666C88.0865 251.666 90.5837 250.103 93.9659 249.343C94.6262 249.195 95.2667 249.093 95.8769 249.018C96.3185 249.216 96.7583 249.434 97.204 249.614C97.5417 249.742 97.8632 249.863 98.1992 249.989C97.1964 250.429 95.9259 250.906 94.4548 251.237ZM85.9982 236.053C85.9072 237.23 85.7077 238.306 85.4854 239.221C85.0153 238.954 84.5369 238.68 84.0638 238.411C84.0207 237.605 84.0032 236.746 84.0761 235.812C84.3403 232.398 85.5163 229.752 85.5163 229.752C85.5163 229.752 86.263 232.641 85.9982 236.053ZM79.6468 242.442C76.2355 242.726 73.3433 241.995 73.3433 241.995C73.3433 241.995 75.9823 240.804 79.3937 240.52C79.4374 240.517 79.4759 240.519 79.5191 240.517C80.4052 241.032 81.2802 241.542 82.1557 242.052C81.3904 242.218 80.5592 242.365 79.6468 242.442ZM66.0102 231.707C62.6345 231.525 59.8882 230.417 59.8882 230.417C59.8882 230.417 61.8633 229.836 64.5245 229.771C64.9877 230.153 65.4555 230.535 65.9128 230.92C66.2366 231.182 66.5516 231.449 66.8689 231.715C66.5831 231.714 66.3077 231.723 66.0102 231.707ZM47.8575 217.101C47.8575 217.101 49.2067 216.898 51.1212 216.984C51.7501 217.68 52.3871 218.362 53.027 219.042C50.0782 218.356 47.8575 217.101 47.8575 217.101ZM37.284 202.21C37.284 202.21 38.2109 202.199 39.58 202.386C40.0332 203.039 40.4859 203.694 40.9473 204.338C38.7686 203.34 37.284 202.21 37.284 202.21ZM28.2248 185.903C28.2248 185.903 29.1115 186.014 30.4001 186.375C30.732 187.063 31.0762 187.744 31.4192 188.427C29.4819 187.171 28.2248 185.903 28.2248 185.903ZM20.9133 168.334C20.9133 168.334 22.0508 168.64 23.5815 169.376L24.215 171.442C24.2576 171.564 24.3054 171.684 24.3486 171.806C22.2381 170.125 20.9133 168.334 20.9133 168.334ZM20.6666 138.631C20.666 138.619 20.6654 138.607 20.6648 138.596C21.2767 137.976 21.9802 137.317 22.8167 136.697C25.3292 134.831 27.7745 134.131 27.7745 134.131C27.7745 134.131 26.1464 136.456 23.634 138.322C22.5962 139.092 21.5929 139.643 20.7471 140.048C20.7197 139.576 20.6946 139.103 20.6666 138.631ZM19.3955 154.309C17.0832 152.141 15.7269 149.624 15.7269 149.624C15.7269 149.624 17.3492 150.315 19.2106 151.761C19.3751 152.73 19.5851 153.689 19.7916 154.649C19.6586 154.533 19.5279 154.434 19.3955 154.309ZM15.9276 137.313C13.9804 134.863 13.0057 132.198 13.0057 132.198C13.0057 132.198 15.1885 133.504 17.1357 135.953C17.3136 136.176 17.453 136.399 17.614 136.624C17.642 137.337 17.6694 138.045 17.6968 138.76C17.7044 138.918 17.7138 139.076 17.719 139.234C17.1462 138.701 16.5284 138.068 15.9276 137.313ZM14.9108 119.81C13.3615 117.138 12.7846 114.38 12.7846 114.38C12.7846 114.38 14.7195 115.953 16.2688 118.625C16.872 119.665 17.3159 120.705 17.6478 121.603C17.628 121.892 17.6017 122.179 17.5837 122.47C17.5784 122.735 17.565 122.998 17.5563 123.262C16.851 122.549 15.8255 121.386 14.9108 119.81ZM20.4058 122.616C20.4373 122.018 20.4834 121.424 20.5208 120.828C20.8906 120.58 21.2598 120.33 21.6705 120.099C24.362 118.583 26.8283 118.21 26.8283 118.21C26.8283 118.21 24.9308 120.293 22.2393 121.809C21.5988 122.169 20.9874 122.445 20.4035 122.686C20.4035 122.663 20.4052 122.64 20.4058 122.616ZM22.6686 104.124C22.8611 104.037 23.0332 103.94 23.2327 103.858C26.0542 102.705 28.4984 102.649 28.4984 102.649C28.4984 102.649 26.3675 104.463 23.5459 105.616C23.1195 105.791 22.7065 105.933 22.3052 106.061C22.4224 105.413 22.542 104.767 22.6686 104.124ZM26.8371 88.377C27.0319 88.3157 27.2092 88.2428 27.4105 88.1874C30.3132 87.3987 32.6961 87.6432 32.6961 87.6432C32.6961 87.6432 30.3727 89.1674 27.47 89.9567C27.0436 90.0727 26.6341 90.1585 26.2362 90.2337C26.434 89.6131 26.6306 88.9912 26.8371 88.377ZM32.9312 73.4536C33.2362 73.3912 33.5273 73.3171 33.8458 73.271C36.7829 72.8411 39.0696 73.3643 39.0696 73.3643C39.0696 73.3643 36.5945 74.5847 33.6568 75.0146C33.1172 75.0939 32.608 75.1353 32.1227 75.1592C32.3817 74.5817 32.6564 74.0177 32.9312 73.4536ZM40.9456 59.3912C41.3784 59.3445 41.8142 59.2978 42.2733 59.2856C45.201 59.2063 47.3617 59.985 47.3617 59.985C47.3617 59.985 44.7757 60.8921 41.848 60.9708C41.1667 60.9895 40.5489 60.9522 39.9691 60.8985C40.2905 60.3869 40.6195 59.8917 40.9456 59.3912ZM47.8406 42.6478C48.3761 39.8081 49.6664 37.4117 49.6664 37.4117C49.6664 37.4117 50.0882 39.6197 49.5533 42.4593C49.3631 43.465 49.0767 44.3855 48.7891 45.1928C48.393 45.6572 48.0016 46.1378 47.6102 46.6197C47.5454 45.7062 47.5291 44.3021 47.8406 42.6478ZM50.6418 46.4493C50.6738 46.4149 50.7036 46.3805 50.7363 46.3455C51.3114 46.3367 51.9152 46.3502 52.5364 46.4068C55.4146 46.6663 57.4236 47.6749 57.4236 47.6749C57.4236 47.6749 54.7665 48.2617 51.8878 48.0027C51.0635 47.9281 50.3302 47.7875 49.6757 47.6317C49.9972 47.2362 50.3163 46.832 50.6418 46.4493ZM60.3846 30.6043C61.2992 27.904 62.8941 25.7218 62.8941 25.7218C62.8941 25.7218 63.0061 27.918 62.092 30.6182C61.8441 31.3515 61.5454 32.0165 61.2432 32.6389C60.8081 33.0093 60.398 33.3582 59.9512 33.7379C59.8526 33.833 59.7441 33.9368 59.6455 34.0319C59.7324 33.1487 59.9325 31.9407 60.3846 30.6043ZM64.4813 34.8019C67.272 35.3864 69.1066 36.5986 69.1066 36.5986C69.1066 36.5986 66.4174 36.864 63.6267 36.2795C62.6858 36.0823 61.8575 35.8146 61.168 35.5457C61.2415 35.4745 61.322 35.3957 61.3949 35.3252C61.7233 35.0428 62.0226 34.7856 62.3446 34.5091C63.0242 34.5651 63.7376 34.6462 64.4813 34.8019ZM74.4954 20.0348C75.7636 17.5242 77.6308 15.5957 77.6308 15.5957C77.6308 15.5957 77.4424 17.7382 76.1742 20.2489C75.8563 20.8766 75.5052 21.4465 75.1511 21.9797C75.1312 21.9925 75.1155 22.003 75.0951 22.017C74.5462 22.3769 73.9319 22.7794 73.3264 23.1767C73.537 22.3396 73.8893 21.2353 74.4954 20.0348ZM77.9557 24.5848C80.6227 25.4779 82.2637 26.8686 82.2637 26.8686C82.2637 26.8686 79.5803 26.8102 76.9127 25.9166C75.9654 25.5992 75.1604 25.2218 74.5012 24.8648C74.9323 24.5778 75.3617 24.2931 75.7647 24.026C76.4624 24.1625 77.1968 24.3305 77.9557 24.5848ZM94.2331 14.7376C94.2331 14.7376 91.4687 16.8195 87.6292 18.0597C86.1341 18.5427 84.7084 18.8221 83.5126 18.9889L82.7578 17.7196C83.8713 17.1129 85.3005 16.4351 86.9344 15.9077C90.7733 14.6676 94.2331 14.7376 94.2331 14.7376ZM163.363 263.098C163.363 263.098 163.145 263.074 162.723 263.077C162.558 263.105 162.145 263.04 161.705 262.987C161.251 262.919 160.766 262.897 160.139 262.768C157.705 262.383 154.025 261.548 149.374 260.394C144.756 259.241 139.156 257.736 132.755 255.941C133.805 252.706 134.879 247.447 132.572 243.533C129.001 237.472 122.903 232.953 122.903 232.953C122.903 232.953 120.022 242.763 123.593 248.823C124.875 250.999 126.265 252.897 127.527 254.451C125.829 253.967 124.086 253.47 122.295 252.96C120.795 252.518 119.001 252.022 117.376 251.581C118.644 248.553 119.764 244.295 118.205 240.676C115.445 234.271 110.004 229.02 110.004 229.02C110.004 229.02 105.935 238.195 108.694 244.601C109.556 246.603 110.528 248.42 111.457 249.973C111.248 249.915 111.05 249.862 110.84 249.805C109.859 249.532 108.859 249.284 107.866 248.98C106.89 248.624 105.905 248.263 104.91 247.899C103.898 247.529 102.849 247.146 101.817 246.768C103.551 243.985 105.564 239.607 104.378 235.533C102.446 228.893 97.7337 223.014 97.7337 223.014C97.7337 223.014 92.6097 231.426 94.5417 238.066C95.3064 240.695 96.28 243.055 97.1778 244.95C95.7048 244.292 94.2372 243.59 92.7298 242.914C90.729 241.962 88.6424 241.101 86.6929 239.91C88.7883 237.558 92.0287 233.067 91.2697 228.408C90.1678 221.64 86.2443 215.24 86.2443 215.24C86.2443 215.24 80.2068 222.783 81.3087 229.552C81.8635 232.957 82.7986 235.972 83.5931 238.143C82.5244 237.534 81.468 236.932 80.3853 236.314C78.318 235.101 76.3831 233.624 74.3385 232.268C73.6758 231.814 73.0073 231.355 72.3394 230.898C74.4412 229.239 79.2764 224.827 79.0577 219.5C78.7794 212.707 75.6936 205.895 75.6936 205.895C75.6936 205.895 68.8861 212.485 69.1643 219.276C69.3382 223.52 70.1595 227.277 70.7504 229.499C70.7685 228.443 70.8618 227.154 71.1337 225.796C71.7969 222.481 73.2622 220.043 73.2622 220.043C73.2622 220.043 73.6519 222.979 72.9887 226.294C72.6532 227.969 72.116 229.411 71.6645 230.436C71.5379 230.35 71.4125 230.263 71.2853 230.176C70.2785 229.454 69.3457 228.623 68.3646 227.845C66.4337 226.251 64.4347 224.695 62.5067 223.028C61.3459 221.975 60.2265 220.85 59.0942 219.747C60.1816 219.174 67.3933 215.152 67.8857 208.941C68.4182 202.22 66.2092 195.104 66.2092 195.104C66.2092 195.104 58.7757 200.67 58.2432 207.39C57.9107 211.587 58.2677 215.393 58.5827 217.659C58.725 216.623 58.9694 215.366 59.3958 214.068C60.4365 210.896 62.1567 208.695 62.1567 208.695C62.1567 208.695 62.1912 211.635 61.1493 214.806C60.4569 216.917 59.4658 218.593 58.8784 219.482C58.8627 219.483 58.8376 219.483 58.8213 219.485C54.7578 215.503 50.8757 211.221 47.2427 206.633C47.5402 206.504 47.7577 206.401 47.8744 206.344C48.8649 205.98 56.5509 202.982 57.7905 196.855C59.1158 190.305 57.8162 182.995 57.8162 182.995C57.8162 182.995 49.9003 187.484 48.575 194.034C47.7467 198.126 47.6387 201.924 47.6737 204.198C47.9362 203.197 48.3253 201.993 48.897 200.77C50.2929 197.783 52.2342 195.844 52.2342 195.844C52.2342 195.844 51.914 198.747 50.5187 201.732C49.59 203.719 48.4222 205.238 47.7432 206.035C47.4503 206.018 47.0782 205.982 46.6663 205.934C46.209 205.349 45.7837 204.73 45.334 204.136C45.7312 204.328 46.1302 204.524 46.4668 204.713C45.8718 204.122 45.1117 203.402 44.2157 202.616C43.4236 201.539 42.6046 200.489 41.8387 199.385C40.1598 196.889 38.5819 194.312 37.0839 191.681C37.5313 191.559 37.8656 191.454 38.019 191.403C39.027 191.177 46.8717 189.248 48.8299 183.369C50.9241 177.082 50.5578 169.694 50.5578 169.694C50.5578 169.694 42.3065 173.062 40.2123 179.348C38.9045 183.275 38.3322 187.009 38.0872 189.259C38.4658 188.305 38.992 187.168 39.6984 186.038C41.4227 183.279 43.5496 181.626 43.5496 181.626C43.5496 181.626 42.8811 184.447 41.1573 187.206C40.0099 189.043 38.6875 190.384 37.9292 191.08C37.5722 191.009 37.0886 190.888 36.5595 190.74C36.1593 190.024 35.758 189.307 35.3707 188.581C35.9167 188.928 36.4177 189.277 36.8506 189.603C36.227 188.79 35.3625 187.731 34.3376 186.586C32.4406 182.875 30.7104 179.064 29.15 175.178C29.4113 175.137 29.6161 175.101 29.7252 175.08C30.7326 174.992 38.593 174.137 41.239 168.593C44.0682 162.663 44.648 155.317 44.648 155.317C44.648 155.317 36.2107 157.538 33.3815 163.467C31.6146 167.17 30.5862 170.783 30.0635 172.971C30.5517 172.081 31.2068 171.028 32.0357 170.006C34.0587 167.511 36.3337 166.164 36.3337 166.164C36.3337 166.164 35.3275 168.861 33.3039 171.355C31.9576 173.016 30.5039 174.164 29.6791 174.749C29.444 174.667 29.1611 174.56 28.8449 174.431C28.5882 173.782 28.3467 173.127 28.0994 172.474C28.345 172.701 28.6081 172.933 28.8187 173.146C28.4832 172.552 28.0568 171.836 27.5645 171.053C27.4817 170.827 27.3913 170.604 27.3096 170.378L24.8398 162.58C24.3684 160.893 23.991 159.185 23.6177 157.476C25.2195 157.522 32.2883 157.44 35.3987 152.595C38.9173 147.113 40.4398 139.931 40.4398 139.931C40.4398 139.931 31.9704 140.998 28.4518 146.48C26.2538 149.903 24.7843 153.335 23.9904 155.429C24.5807 154.614 25.3537 153.661 26.2911 152.762C28.5783 150.567 30.9601 149.539 30.9601 149.539C30.9601 149.539 29.6318 152.07 27.344 154.265C25.8892 155.661 24.4174 156.568 23.5232 157.056C23.3464 156.247 23.1726 155.436 22.9818 154.631C22.7077 153.303 22.3314 151.986 22.1407 150.652L21.5988 146.649L21.0545 142.657L20.8492 141.157C23.4456 141.396 28.6378 141.348 31.6624 137.739C35.8099 132.788 38.2541 125.893 38.2541 125.893C38.2541 125.893 29.9048 125.825 25.7573 130.775C23.48 133.493 21.7487 136.288 20.6491 138.259C20.5242 135.668 20.4006 133.086 20.2775 130.518C20.1848 128.557 20.2898 126.507 20.3586 124.482C23.0419 124.919 27.1608 124.993 30.0973 122.277C34.799 117.929 38.117 111.44 38.117 111.44C38.117 111.44 30.0361 110.287 25.335 114.635C23.431 116.396 21.8467 118.211 20.5896 119.78C20.8649 115.855 21.2937 111.979 21.9353 108.182C24.4769 108.856 28.1169 109.208 31.1042 107.072C36.2684 103.38 40.3902 97.4012 40.3902 97.4012C40.3902 97.4012 32.713 95.2428 27.5482 98.9348C25.8011 100.184 24.2599 101.501 22.9538 102.714C23.6964 99.1605 24.5761 95.6821 25.5876 92.3005C27.9617 93.2682 31.4279 94.0417 34.6106 92.3162C40.1447 89.3156 44.9834 83.9367 44.9834 83.9367C44.9834 83.9367 37.8247 80.8707 32.2907 83.8707C30.4292 84.8805 28.7405 85.9877 27.3072 87.0167C28.2826 84.2143 29.3326 81.4767 30.4689 78.8337C30.7559 78.2147 31.0242 77.5964 31.2978 76.9769C33.4725 78.2492 36.8407 79.5372 40.2847 78.1809C46.0917 75.8931 51.5535 71.1873 51.5535 71.1873C51.5535 71.1873 45.0073 67.3257 39.1991 69.6129C37.0536 70.4582 35.0924 71.4446 33.4614 72.3552C34.4968 70.3899 35.5182 68.4509 36.5227 66.5463C37.3662 65.151 38.1957 63.7784 39.0282 62.4233C40.9526 63.9686 44.1761 65.8096 47.882 64.8412C53.8699 63.2773 59.8549 59.3054 59.8549 59.3054C59.8549 59.3054 53.9953 54.763 48.0074 56.3269C45.5545 56.968 43.2976 57.8045 41.477 58.5698C42.1146 57.6132 42.7621 56.6734 43.4329 55.7675C44.0221 54.9269 44.6054 54.0945 45.1818 53.2714C45.7785 52.4635 46.4207 51.7034 47.0274 50.9299C47.5921 50.2322 48.141 49.5357 48.6876 48.8468C50.3139 50.6073 53.3204 53.0177 57.2655 52.474C63.345 51.6363 69.7523 48.4472 69.7523 48.4472C69.7523 48.4472 64.6382 43.3402 58.5593 44.1784C55.7891 44.5605 53.2195 45.2062 51.2338 45.7972C53.5374 43.2713 55.6555 40.784 57.9235 38.705C58.7081 37.9414 59.4489 37.2192 60.1997 36.4883C61.4993 38.3923 64.1722 41.3265 68.2946 41.2489C74.3793 41.1346 81.1069 38.7715 81.1069 38.7715C81.1069 38.7715 76.785 33.2147 70.7003 33.329C67.6798 33.3862 64.8535 33.7747 62.7605 34.1515C63.45 33.5594 64.1564 32.9528 64.8138 32.3869C66.9663 30.4479 69.0867 28.8717 70.9989 27.4408C71.8617 26.7881 72.6678 26.1773 73.4448 25.5887C74.4336 27.5767 76.6753 30.865 80.8304 31.2815C86.8347 31.8835 93.7787 30.382 93.7787 30.382C93.7787 30.382 90.2822 24.488 84.2773 23.8854C81.2061 23.578 78.2894 23.6352 76.1597 23.7635C76.1783 23.7513 76.2011 23.7367 76.2192 23.7244C77.7848 22.6878 79.1166 21.8058 80.1963 21.0912C81.4091 20.3597 82.2957 19.8248 82.8575 19.4865C85.3763 19.5868 90.2542 19.5752 95.6407 18.4709C103.467 16.8656 109.539 6.96932 109.539 6.96932C109.539 6.96932 101.089 5.27184 93.263 6.87718C87.2943 8.10101 83.3399 14.7142 81.7952 17.7896C81.2172 18.1343 80.3142 18.6727 79.0862 19.4048C78.4113 19.847 77.6034 20.3749 76.736 20.9425C78.1127 19.6633 79.6684 18.104 81.16 16.3003C85.0053 11.6494 83.3475 5 83.3475 5C83.3475 5 77.3543 8.81558 73.5084 13.4659C70.3742 17.2558 71.927 22.0152 72.6089 23.6474C72.5937 23.6579 72.5815 23.6655 72.5657 23.6754C71.6937 24.3276 70.7662 25.0206 69.7862 25.7527C67.818 27.2081 65.6346 28.8157 63.4424 30.7687C63.1455 31.0213 62.8188 31.2984 62.5155 31.5568C63.7632 30.0478 65.2058 28.1449 66.5195 26.0099C69.7097 20.8281 67.1186 14.2814 67.1186 14.2814C67.1186 14.2814 61.6656 18.8763 58.4759 24.0592C55.8177 28.3788 58.1959 33.1278 59.0633 34.5919C58.1912 35.4319 57.3186 36.2719 56.4022 37.1545C54.0076 39.3292 51.774 41.9419 49.3257 44.5879C50.514 42.7772 52.0563 40.1989 53.3391 37.2729C55.8042 31.6531 52.2862 25.3403 52.2862 25.3403C52.2862 25.3403 47.4707 30.6346 45.0056 36.2544C42.8286 41.2186 46.3892 46.0037 47.2514 47.0542C46.5928 47.8715 45.9313 48.7004 45.25 49.5328C44.6287 50.3168 43.9713 51.0874 43.3594 51.907C42.7679 52.7417 42.17 53.5852 41.5657 54.4375C40.1412 56.3415 38.8053 58.3797 37.4853 60.4832C37.4718 60.4797 37.4503 60.4756 37.4374 60.4721C37.2292 59.6099 36.9334 57.9993 37.0238 56.0522C37.1598 53.1268 38.117 50.5583 38.117 50.5583C38.117 50.5583 38.8538 52.7342 38.7173 55.6602C38.6618 56.8583 38.4682 57.9935 38.2587 58.9192C39.237 56.9832 40.7367 53.7054 41.7867 49.9843C43.4667 44.0279 39.0392 38.0808 39.0392 38.0808C39.0392 38.0808 34.9518 43.9877 33.2712 49.9441C31.7003 55.5149 36.5659 60.1273 37.2035 60.7013C37.2233 60.7241 37.2595 60.7637 37.2892 60.7976C36.3518 62.2973 35.4197 63.8239 34.4706 65.3767C33.4083 67.3659 32.3286 69.3883 31.2319 71.4417C30.6089 72.6188 30.0489 73.8427 29.4953 75.0793C29.3804 75.0665 29.2416 75.0542 29.1447 75.0414C28.8122 74.1991 28.2861 72.6171 28.1 70.6512C27.8206 67.6961 28.4185 65.0022 28.4185 65.0022C28.4185 65.0022 29.4697 67.0988 29.7497 70.0545C29.864 71.2649 29.8302 72.4275 29.752 73.383C30.4613 71.3215 31.5055 67.8495 32.0322 63.9861C32.8775 57.8016 27.5721 52.3579 27.5721 52.3579C27.5721 52.3579 24.2972 58.7798 23.452 64.9637C22.6622 70.7475 28.219 74.7982 28.9423 75.2992C29.0059 75.3558 29.1243 75.4562 29.2702 75.5757C28.9295 76.3382 28.5929 77.1006 28.2347 77.8636C26.4812 81.9002 24.8911 86.1376 23.4922 90.5283C23.2892 90.5324 23.0787 90.5377 22.9194 90.5353C22.4638 89.7332 21.7061 88.2137 21.2371 86.2677C20.533 83.3434 20.7512 80.5737 20.7512 80.5737C20.7512 80.5737 22.1121 82.5442 22.8167 85.4685C23.1055 86.6667 23.2373 87.8351 23.2945 88.8017C23.7157 86.6503 24.2727 83.0459 24.2535 79.1137C24.222 72.8189 18.0894 68.0175 18.0894 68.0175C18.0894 68.0175 15.7018 74.8477 15.7339 81.1425C15.7631 87.0295 21.9499 90.4058 22.752 90.8188C22.8477 90.8836 23.0332 91.0037 23.2887 91.1572C21.7323 96.1312 20.4303 101.307 19.4655 106.65C19.462 106.669 19.4597 106.689 19.4556 106.708C19.3121 106.728 19.1476 106.754 19.0286 106.767C18.4534 106.023 17.4693 104.602 16.7162 102.719C15.5857 99.8879 15.4096 97.0955 15.4096 97.0955C15.4096 97.0955 17.068 98.8916 18.1985 101.722C18.6622 102.882 18.9633 104.031 19.1598 104.989C19.2771 102.788 19.3243 99.1208 18.741 95.1973C17.8071 88.9177 10.9191 84.8968 10.9191 84.8968C10.9191 84.8968 9.48408 92.0158 10.4174 98.2954C11.2912 104.168 18.0305 106.76 18.8997 107.07C18.9872 107.114 19.1511 107.191 19.3576 107.282C18.5187 111.864 17.9937 116.568 17.6671 121.334C17.4512 119.1 16.9688 115.663 15.885 112.057C14.0422 105.925 6.49567 102.816 6.49567 102.816C6.49567 102.816 6.05933 110.092 7.90267 116.224C9.53483 121.657 16.067 123.47 17.5376 123.814C17.4495 126.063 17.2955 128.292 17.3818 130.644C17.4203 131.628 17.4582 132.623 17.4967 133.611C17.0347 132.296 16.4812 130.893 15.8191 129.475C13.085 123.623 5 121.539 5 121.539C5 121.539 5.58683 128.831 8.32033 134.682C10.2885 138.895 15.1938 140.297 17.7919 140.753C17.7931 140.769 17.7925 140.786 17.7937 140.802L18.0521 142.867L18.573 147.008L18.5917 147.155C18.4616 146.949 18.3367 146.743 18.2008 146.536C14.6221 141.095 6.14042 140.122 6.14042 140.122C6.14042 140.122 7.74341 147.288 11.3227 152.729C13.5079 156.051 17.5504 157.076 20.3761 157.372C20.8019 159.395 21.2161 161.423 21.7545 163.42L21.8916 163.866C17.3194 160.049 9.92742 160.204 9.92742 160.204C9.92742 160.204 12.5122 167.106 16.8685 172.023C19.2362 174.696 22.8529 175.355 25.6675 175.404C26.3751 177.255 27.1328 179.085 27.9157 180.903C22.8424 178.252 16.0512 179.324 16.0512 179.324C16.0512 179.324 19.5629 185.834 24.6099 190.128C27.1987 192.33 30.6824 192.595 33.4667 192.335C34.3708 193.994 35.3042 195.633 36.2772 197.245C30.8294 195.341 24.1532 197.328 24.1532 197.328C24.1532 197.328 28.5217 203.331 34.162 206.916C37.1096 208.789 40.7467 208.533 43.549 207.863C44.7687 209.463 46.0241 211.022 47.2992 212.558C41.3417 210.764 34.0121 214.032 34.0121 214.032C34.0121 214.032 39.1559 219.423 45.2867 222.226C48.7494 223.808 52.7132 222.799 55.5137 221.621C56.9616 223.084 58.4269 224.519 59.9226 225.899C60.0976 226.054 60.279 226.198 60.4546 226.351C60.3572 226.321 60.2638 226.288 60.1652 226.257C53.6547 224.298 45.5796 229.254 45.5796 229.254C45.5796 229.254 51.4112 233.936 57.9206 235.896C61.9917 237.121 66.2967 235.085 68.9578 233.388C69.988 234.108 71.0135 234.826 72.0332 235.539C73.4197 236.478 74.7696 237.443 76.1317 238.375C75.1709 238.154 74.1623 237.954 73.1182 237.79C66.3439 236.726 58.8364 242.807 58.8364 242.807C58.8364 242.807 65.2577 246.694 72.032 247.757C76.8188 248.508 81.4091 245.045 83.6928 242.947C83.9833 243.117 84.2832 243.29 84.5719 243.46C86.6177 244.749 88.8162 245.677 90.9232 246.703C91.8869 247.147 92.8325 247.611 93.7769 248.065C91.8922 247.762 89.7 247.517 87.3463 247.475C80.4314 247.349 73.6554 254.498 73.6554 254.498C73.6554 254.498 80.5632 257.507 87.4781 257.631C92.9748 257.731 97.5627 252.519 99.2182 250.372C100.645 250.909 102.079 251.45 103.472 251.972C104.497 252.357 105.515 252.74 106.522 253.118C107.546 253.441 108.578 253.708 109.589 254.001C110.796 254.341 111.956 254.667 113.132 254.999C110.797 254.761 106.945 254.549 102.68 255.069C95.7556 255.911 89.8785 264.047 89.8785 264.047C89.8785 264.047 97.1556 266.105 104.079 265.262C110.27 264.508 114.477 257.16 115.301 255.609C115.381 255.631 115.467 255.655 115.548 255.678C117.569 256.238 119.152 256.7 121.035 257.265C122.895 257.813 124.701 258.347 126.459 258.865C124.315 259.075 121.699 259.469 118.938 260.209C112.144 262.032 107.328 271.051 107.328 271.051C107.328 271.051 114.845 272.098 121.64 270.275C126.729 268.908 129.837 263.075 131.079 260.229C131.163 260.254 131.254 260.28 131.337 260.304C137.819 262.186 143.492 263.768 148.205 264.99C152.926 266.206 156.651 267.092 159.331 267.545C159.974 267.683 160.633 267.737 161.155 267.815C161.695 267.883 162.104 267.959 162.61 267.947C163.527 267.939 164 267.936 164 267.936L163.363 263.098Z" fill="url(#paint2_linear_26_959)" stroke="#5A2E56"/>
</g>
<defs>
<filter id="filter0_f_26_959" x="0.445312" y="0.205338" width="298.425" height="275.645" filterUnits="userSpaceOnUse" color-interpolation-filters="sRGB">
<feFlood flood-opacity="0" result="BackgroundImageFix"/>
<feBlend mode="normal" in="SourceGraphic" in2="BackgroundImageFix" result="shape"/>
<feGaussianBlur stdDeviation="2" result="effect1_foregroundBlur_26_959"/>
</filter>
<linearGradient id="paint0_linear_26_959" x1="151.831" y1="-7.90915" x2="151.831" y2="273.241" gradientUnits="userSpaceOnUse">
<stop offset="0.208333" stop-color="#EEE9B8" stop-opacity="0.05"/>
<stop offset="0.447917" stop-color="#D7AB10" stop-opacity="0.47"/>
</linearGradient>
<linearGradient id="paint1_linear_26_959" x1="214.816" y1="-7.90887" x2="214.816" y2="273.24" gradientUnits="userSpaceOnUse">
<stop stop-color="#9E4784"/>
<stop offset="1" stop-color="#004444"/>
</linearGradient>
<linearGradient id="paint2_linear_26_959" x1="84.4997" y1="-7.90887" x2="84.4997" y2="273.24" gradientUnits="userSpaceOnUse">
<stop stop-color="#9E4784"/>
<stop offset="1" stop-color="#044E58"/>
</linearGradient>
</defs>
</svg>
