<svg width="415" height="134" viewBox="0 0 415 134" fill="none" xmlns="http://www.w3.org/2000/svg">
<g filter="url(#filter0_f_26_954)">
<circle cx="348" cy="67" r="63" fill="#130220" fill-opacity="0.76"/>
</g>
<mask id="path-2-inside-1_26_954" fill="white">
<path d="M411 67C411 101.794 382.794 130 348 130C313.206 130 285 101.794 285 67C285 32.2061 313.206 4 348 4C382.794 4 411 32.2061 411 67ZM294.809 67C294.809 96.3765 318.623 120.191 348 120.191C377.377 120.191 401.191 96.3765 401.191 67C401.191 37.6235 377.377 13.8091 348 13.8091C318.623 13.8091 294.809 37.6235 294.809 67Z"/>
</mask>
<g filter="url(#filter1_i_26_954)">
<path d="M411 67C411 101.794 382.794 130 348 130C313.206 130 285 101.794 285 67C285 32.2061 313.206 4 348 4C382.794 4 411 32.2061 411 67ZM294.809 67C294.809 96.3765 318.623 120.191 348 120.191C377.377 120.191 401.191 96.3765 401.191 67C401.191 37.6235 377.377 13.8091 348 13.8091C318.623 13.8091 294.809 37.6235 294.809 67Z" fill="#6F1455"/>
</g>
<path d="M411 67C411 101.794 382.794 130 348 130C313.206 130 285 101.794 285 67C285 32.2061 313.206 4 348 4C382.794 4 411 32.2061 411 67ZM294.809 67C294.809 96.3765 318.623 120.191 348 120.191C377.377 120.191 401.191 96.3765 401.191 67C401.191 37.6235 377.377 13.8091 348 13.8091C318.623 13.8091 294.809 37.6235 294.809 67Z" stroke="#DCEEF9" stroke-opacity="0.35" stroke-width="2" mask="url(#path-2-inside-1_26_954)"/>
<mask id="path-3-inside-2_26_954" fill="white">
<path d="M347.811 124.864C347.811 126.867 346.186 128.502 344.187 128.384C334.729 127.828 325.509 125.098 317.252 120.388C307.942 115.078 300.177 107.434 294.721 98.2089C289.265 88.9838 286.308 78.4964 286.139 67.7802C285.971 57.064 288.598 46.4888 293.761 37.097C298.924 27.7051 306.446 19.8207 315.584 14.2208C324.722 8.62094 335.162 5.49882 345.874 5.16217C356.586 4.82553 367.201 7.28597 376.673 12.301C385.075 16.7494 392.319 23.0714 397.857 30.7584C399.028 32.3836 398.518 34.6318 396.827 35.7051V35.7051C395.136 36.7784 392.904 36.2691 391.721 34.6532C386.867 28.0259 380.566 22.5699 373.279 18.7114C364.921 14.2862 355.554 12.1151 346.102 12.4121C336.649 12.7092 327.437 15.4641 319.374 20.4055C311.31 25.3468 304.673 32.304 300.117 40.5914C295.561 48.8788 293.243 58.2103 293.392 67.6663C293.541 77.1223 296.15 86.3763 300.965 94.5165C305.779 102.657 312.631 109.402 320.845 114.088C328.008 118.173 335.991 120.57 344.187 121.117C346.186 121.25 347.811 122.861 347.811 124.864V124.864Z"/>
</mask>
<g filter="url(#filter2_i_26_954)">
<path d="M347.811 124.864C347.811 126.867 346.186 128.502 344.187 128.384C334.729 127.828 325.509 125.098 317.252 120.388C307.942 115.078 300.177 107.434 294.721 98.2089C289.265 88.9838 286.308 78.4964 286.139 67.7802C285.971 57.064 288.598 46.4888 293.761 37.097C298.924 27.7051 306.446 19.8207 315.584 14.2208C324.722 8.62094 335.162 5.49882 345.874 5.16217C356.586 4.82553 367.201 7.28597 376.673 12.301C385.075 16.7494 392.319 23.0714 397.857 30.7584C399.028 32.3836 398.518 34.6318 396.827 35.7051V35.7051C395.136 36.7784 392.904 36.2691 391.721 34.6532C386.867 28.0259 380.566 22.5699 373.279 18.7114C364.921 14.2862 355.554 12.1151 346.102 12.4121C336.649 12.7092 327.437 15.4641 319.374 20.4055C311.31 25.3468 304.673 32.304 300.117 40.5914C295.561 48.8788 293.243 58.2103 293.392 67.6663C293.541 77.1223 296.15 86.3763 300.965 94.5165C305.779 102.657 312.631 109.402 320.845 114.088C328.008 118.173 335.991 120.57 344.187 121.117C346.186 121.25 347.811 122.861 347.811 124.864V124.864Z" fill="#EA047E"/>
</g>
<path d="M347.811 124.864C347.811 126.867 346.186 128.502 344.187 128.384C334.729 127.828 325.509 125.098 317.252 120.388C307.942 115.078 300.177 107.434 294.721 98.2089C289.265 88.9838 286.308 78.4964 286.139 67.7802C285.971 57.064 288.598 46.4888 293.761 37.097C298.924 27.7051 306.446 19.8207 315.584 14.2208C324.722 8.62094 335.162 5.49882 345.874 5.16217C356.586 4.82553 367.201 7.28597 376.673 12.301C385.075 16.7494 392.319 23.0714 397.857 30.7584C399.028 32.3836 398.518 34.6318 396.827 35.7051V35.7051C395.136 36.7784 392.904 36.2691 391.721 34.6532C386.867 28.0259 380.566 22.5699 373.279 18.7114C364.921 14.2862 355.554 12.1151 346.102 12.4121C336.649 12.7092 327.437 15.4641 319.374 20.4055C311.31 25.3468 304.673 32.304 300.117 40.5914C295.561 48.8788 293.243 58.2103 293.392 67.6663C293.541 77.1223 296.15 86.3763 300.965 94.5165C305.779 102.657 312.631 109.402 320.845 114.088C328.008 118.173 335.991 120.57 344.187 121.117C346.186 121.25 347.811 122.861 347.811 124.864V124.864Z" stroke="#020625" stroke-opacity="0.15" stroke-width="2" mask="url(#path-3-inside-2_26_954)"/>
<g filter="url(#filter3_f_26_954)">
<circle cx="67" cy="67" r="63" fill="#130220" fill-opacity="0.76"/>
</g>
<mask id="path-5-inside-3_26_954" fill="white">
<path d="M130 67C130 101.794 101.794 130 67 130C32.2061 130 4 101.794 4 67C4 32.2061 32.2061 4 67 4C101.794 4 130 32.2061 130 67ZM13.8091 67C13.8091 96.3765 37.6235 120.191 67 120.191C96.3765 120.191 120.191 96.3765 120.191 67C120.191 37.6235 96.3765 13.8091 67 13.8091C37.6235 13.8091 13.8091 37.6235 13.8091 67Z"/>
</mask>
<g filter="url(#filter4_i_26_954)">
<path d="M130 67C130 101.794 101.794 130 67 130C32.2061 130 4 101.794 4 67C4 32.2061 32.2061 4 67 4C101.794 4 130 32.2061 130 67ZM13.8091 67C13.8091 96.3765 37.6235 120.191 67 120.191C96.3765 120.191 120.191 96.3765 120.191 67C120.191 37.6235 96.3765 13.8091 67 13.8091C37.6235 13.8091 13.8091 37.6235 13.8091 67Z" fill="#6F5514"/>
</g>
<path d="M130 67C130 101.794 101.794 130 67 130C32.2061 130 4 101.794 4 67C4 32.2061 32.2061 4 67 4C101.794 4 130 32.2061 130 67ZM13.8091 67C13.8091 96.3765 37.6235 120.191 67 120.191C96.3765 120.191 120.191 96.3765 120.191 67C120.191 37.6235 96.3765 13.8091 67 13.8091C37.6235 13.8091 13.8091 37.6235 13.8091 67Z" stroke="#F9F2DC" stroke-opacity="0.35" stroke-width="2" mask="url(#path-5-inside-3_26_954)"/>
<mask id="path-6-inside-4_26_954" fill="white">
<path d="M66.8113 124.864C66.8113 126.867 65.1861 128.502 63.1865 128.384C53.729 127.828 44.5092 125.098 36.2516 120.388C26.942 115.078 19.1768 107.434 13.7211 98.2089C8.26542 88.9838 5.30767 78.4964 5.13932 67.7802C4.97098 57.064 7.59786 46.4888 12.7611 37.097C17.9243 27.7051 25.4456 19.8207 34.5838 14.2208C43.722 8.62094 54.1617 5.49882 64.8739 5.16217C75.5862 4.82553 86.2013 7.28597 95.6731 12.301C104.075 16.7494 111.319 23.0714 116.857 30.7584C118.028 32.3836 117.518 34.6318 115.827 35.7051V35.7051C114.136 36.7784 111.904 36.2691 110.721 34.6532C105.867 28.0259 99.5663 22.5699 92.2789 18.7114C83.921 14.2862 74.5543 12.1151 65.1018 12.4121C55.6493 12.7092 46.4373 15.4641 38.3738 20.4055C30.3102 25.3468 23.6734 32.304 19.1174 40.5914C14.5614 48.8788 12.2434 58.2103 12.392 67.6663C12.5405 77.1223 15.1504 86.3763 19.9645 94.5165C24.7786 102.657 31.6307 109.402 39.8455 114.088C47.008 118.173 54.991 120.57 63.1872 121.117C65.1858 121.25 66.8113 122.861 66.8113 124.864V124.864Z"/>
</mask>
<g filter="url(#filter5_i_26_954)">
<path d="M66.8113 124.864C66.8113 126.867 65.1861 128.502 63.1865 128.384C53.729 127.828 44.5092 125.098 36.2516 120.388C26.942 115.078 19.1768 107.434 13.7211 98.2089C8.26542 88.9838 5.30767 78.4964 5.13932 67.7802C4.97098 57.064 7.59786 46.4888 12.7611 37.097C17.9243 27.7051 25.4456 19.8207 34.5838 14.2208C43.722 8.62094 54.1617 5.49882 64.8739 5.16217C75.5862 4.82553 86.2013 7.28597 95.6731 12.301C104.075 16.7494 111.319 23.0714 116.857 30.7584C118.028 32.3836 117.518 34.6318 115.827 35.7051V35.7051C114.136 36.7784 111.904 36.2691 110.721 34.6532C105.867 28.0259 99.5663 22.5699 92.2789 18.7114C83.921 14.2862 74.5543 12.1151 65.1018 12.4121C55.6493 12.7092 46.4373 15.4641 38.3738 20.4055C30.3102 25.3468 23.6734 32.304 19.1174 40.5914C14.5614 48.8788 12.2434 58.2103 12.392 67.6663C12.5405 77.1223 15.1504 86.3763 19.9645 94.5165C24.7786 102.657 31.6307 109.402 39.8455 114.088C47.008 118.173 54.991 120.57 63.1872 121.117C65.1858 121.25 66.8113 122.861 66.8113 124.864V124.864Z" fill="#FFED00"/>
</g>
<path d="M66.8113 124.864C66.8113 126.867 65.1861 128.502 63.1865 128.384C53.729 127.828 44.5092 125.098 36.2516 120.388C26.942 115.078 19.1768 107.434 13.7211 98.2089C8.26542 88.9838 5.30767 78.4964 5.13932 67.7802C4.97098 57.064 7.59786 46.4888 12.7611 37.097C17.9243 27.7051 25.4456 19.8207 34.5838 14.2208C43.722 8.62094 54.1617 5.49882 64.8739 5.16217C75.5862 4.82553 86.2013 7.28597 95.6731 12.301C104.075 16.7494 111.319 23.0714 116.857 30.7584C118.028 32.3836 117.518 34.6318 115.827 35.7051V35.7051C114.136 36.7784 111.904 36.2691 110.721 34.6532C105.867 28.0259 99.5663 22.5699 92.2789 18.7114C83.921 14.2862 74.5543 12.1151 65.1018 12.4121C55.6493 12.7092 46.4373 15.4641 38.3738 20.4055C30.3102 25.3468 23.6734 32.304 19.1174 40.5914C14.5614 48.8788 12.2434 58.2103 12.392 67.6663C12.5405 77.1223 15.1504 86.3763 19.9645 94.5165C24.7786 102.657 31.6307 109.402 39.8455 114.088C47.008 118.173 54.991 120.57 63.1872 121.117C65.1858 121.25 66.8113 122.861 66.8113 124.864V124.864Z" stroke="black" stroke-opacity="0.15" stroke-width="2" mask="url(#path-6-inside-4_26_954)"/>
<g filter="url(#filter6_f_26_954)">
<circle cx="211" cy="67" r="63" fill="#130220" fill-opacity="0.76"/>
</g>
<mask id="path-8-inside-5_26_954" fill="white">
<path d="M274 67C274 101.794 245.794 130 211 130C176.206 130 148 101.794 148 67C148 32.2061 176.206 4 211 4C245.794 4 274 32.2061 274 67ZM157.809 67C157.809 96.3765 181.623 120.191 211 120.191C240.377 120.191 264.191 96.3765 264.191 67C264.191 37.6235 240.377 13.8091 211 13.8091C181.623 13.8091 157.809 37.6235 157.809 67Z"/>
</mask>
<g filter="url(#filter7_i_26_954)">
<path d="M274 67C274 101.794 245.794 130 211 130C176.206 130 148 101.794 148 67C148 32.2061 176.206 4 211 4C245.794 4 274 32.2061 274 67ZM157.809 67C157.809 96.3765 181.623 120.191 211 120.191C240.377 120.191 264.191 96.3765 264.191 67C264.191 37.6235 240.377 13.8091 211 13.8091C181.623 13.8091 157.809 37.6235 157.809 67Z" fill="#14596F"/>
</g>
<path d="M274 67C274 101.794 245.794 130 211 130C176.206 130 148 101.794 148 67C148 32.2061 176.206 4 211 4C245.794 4 274 32.2061 274 67ZM157.809 67C157.809 96.3765 181.623 120.191 211 120.191C240.377 120.191 264.191 96.3765 264.191 67C264.191 37.6235 240.377 13.8091 211 13.8091C181.623 13.8091 157.809 37.6235 157.809 67Z" stroke="#DCEEF9" stroke-opacity="0.35" stroke-width="2" mask="url(#path-8-inside-5_26_954)"/>
<mask id="path-9-inside-6_26_954" fill="white">
<path d="M210.811 124.864C210.811 126.867 209.186 128.502 207.187 128.384C197.729 127.828 188.509 125.098 180.252 120.388C170.942 115.078 163.177 107.434 157.721 98.2089C152.265 88.9838 149.308 78.4964 149.139 67.7802C148.971 57.064 151.598 46.4888 156.761 37.097C161.924 27.7051 169.446 19.8207 178.584 14.2208C187.722 8.62094 198.162 5.49882 208.874 5.16217C219.586 4.82553 230.201 7.28597 239.673 12.301C248.075 16.7494 255.319 23.0714 260.857 30.7584C262.028 32.3836 261.518 34.6318 259.827 35.7051V35.7051C258.136 36.7784 255.904 36.2691 254.721 34.6532C249.867 28.0259 243.566 22.5699 236.279 18.7114C227.921 14.2862 218.554 12.1151 209.102 12.4121C199.649 12.7092 190.437 15.4641 182.374 20.4055C174.31 25.3468 167.673 32.304 163.117 40.5914C158.561 48.8788 156.243 58.2103 156.392 67.6663C156.541 77.1223 159.15 86.3763 163.965 94.5165C168.779 102.657 175.631 109.402 183.845 114.088C191.008 118.173 198.991 120.57 207.187 121.117C209.186 121.25 210.811 122.861 210.811 124.864V124.864Z"/>
</mask>
<g filter="url(#filter8_i_26_954)">
<path d="M210.811 124.864C210.811 126.867 209.186 128.502 207.187 128.384C197.729 127.828 188.509 125.098 180.252 120.388C170.942 115.078 163.177 107.434 157.721 98.2089C152.265 88.9838 149.308 78.4964 149.139 67.7802C148.971 57.064 151.598 46.4888 156.761 37.097C161.924 27.7051 169.446 19.8207 178.584 14.2208C187.722 8.62094 198.162 5.49882 208.874 5.16217C219.586 4.82553 230.201 7.28597 239.673 12.301C248.075 16.7494 255.319 23.0714 260.857 30.7584C262.028 32.3836 261.518 34.6318 259.827 35.7051V35.7051C258.136 36.7784 255.904 36.2691 254.721 34.6532C249.867 28.0259 243.566 22.5699 236.279 18.7114C227.921 14.2862 218.554 12.1151 209.102 12.4121C199.649 12.7092 190.437 15.4641 182.374 20.4055C174.31 25.3468 167.673 32.304 163.117 40.5914C158.561 48.8788 156.243 58.2103 156.392 67.6663C156.541 77.1223 159.15 86.3763 163.965 94.5165C168.779 102.657 175.631 109.402 183.845 114.088C191.008 118.173 198.991 120.57 207.187 121.117C209.186 121.25 210.811 122.861 210.811 124.864V124.864Z" fill="#31E1F7"/>
</g>
<path d="M210.811 124.864C210.811 126.867 209.186 128.502 207.187 128.384C197.729 127.828 188.509 125.098 180.252 120.388C170.942 115.078 163.177 107.434 157.721 98.2089C152.265 88.9838 149.308 78.4964 149.139 67.7802C148.971 57.064 151.598 46.4888 156.761 37.097C161.924 27.7051 169.446 19.8207 178.584 14.2208C187.722 8.62094 198.162 5.49882 208.874 5.16217C219.586 4.82553 230.201 7.28597 239.673 12.301C248.075 16.7494 255.319 23.0714 260.857 30.7584C262.028 32.3836 261.518 34.6318 259.827 35.7051V35.7051C258.136 36.7784 255.904 36.2691 254.721 34.6532C249.867 28.0259 243.566 22.5699 236.279 18.7114C227.921 14.2862 218.554 12.1151 209.102 12.4121C199.649 12.7092 190.437 15.4641 182.374 20.4055C174.31 25.3468 167.673 32.304 163.117 40.5914C158.561 48.8788 156.243 58.2103 156.392 67.6663C156.541 77.1223 159.15 86.3763 163.965 94.5165C168.779 102.657 175.631 109.402 183.845 114.088C191.008 118.173 198.991 120.57 207.187 121.117C209.186 121.25 210.811 122.861 210.811 124.864V124.864Z" stroke="#020625" stroke-opacity="0.15" stroke-width="2" mask="url(#path-9-inside-6_26_954)"/>
<defs>
<filter id="filter0_f_26_954" x="281" y="0" width="134" height="134" filterUnits="userSpaceOnUse" color-interpolation-filters="sRGB">
<feFlood flood-opacity="0" result="BackgroundImageFix"/>
<feBlend mode="normal" in="SourceGraphic" in2="BackgroundImageFix" result="shape"/>
<feGaussianBlur stdDeviation="2" result="effect1_foregroundBlur_26_954"/>
</filter>
<filter id="filter1_i_26_954" x="285" y="4" width="126" height="130" filterUnits="userSpaceOnUse" color-interpolation-filters="sRGB">
<feFlood flood-opacity="0" result="BackgroundImageFix"/>
<feBlend mode="normal" in="SourceGraphic" in2="BackgroundImageFix" result="shape"/>
<feColorMatrix in="SourceAlpha" type="matrix" values="0 0 0 0 0 0 0 0 0 0 0 0 0 0 0 0 0 0 127 0" result="hardAlpha"/>
<feOffset dy="4"/>
<feGaussianBlur stdDeviation="2"/>
<feComposite in2="hardAlpha" operator="arithmetic" k2="-1" k3="1"/>
<feColorMatrix type="matrix" values="0 0 0 0 0 0 0 0 0 0 0 0 0 0 0 0 0 0 0.25 0"/>
<feBlend mode="normal" in2="shape" result="effect1_innerShadow_26_954"/>
</filter>
<filter id="filter2_i_26_954" x="286.132" y="5.13173" width="112.36" height="127.259" filterUnits="userSpaceOnUse" color-interpolation-filters="sRGB">
<feFlood flood-opacity="0" result="BackgroundImageFix"/>
<feBlend mode="normal" in="SourceGraphic" in2="BackgroundImageFix" result="shape"/>
<feColorMatrix in="SourceAlpha" type="matrix" values="0 0 0 0 0 0 0 0 0 0 0 0 0 0 0 0 0 0 127 0" result="hardAlpha"/>
<feOffset dy="4"/>
<feGaussianBlur stdDeviation="2"/>
<feComposite in2="hardAlpha" operator="arithmetic" k2="-1" k3="1"/>
<feColorMatrix type="matrix" values="0 0 0 0 0 0 0 0 0 0 0 0 0 0 0 0 0 0 0.25 0"/>
<feBlend mode="normal" in2="shape" result="effect1_innerShadow_26_954"/>
</filter>
<filter id="filter3_f_26_954" x="0" y="0" width="134" height="134" filterUnits="userSpaceOnUse" color-interpolation-filters="sRGB">
<feFlood flood-opacity="0" result="BackgroundImageFix"/>
<feBlend mode="normal" in="SourceGraphic" in2="BackgroundImageFix" result="shape"/>
<feGaussianBlur stdDeviation="2" result="effect1_foregroundBlur_26_954"/>
</filter>
<filter id="filter4_i_26_954" x="4" y="4" width="126" height="130" filterUnits="userSpaceOnUse" color-interpolation-filters="sRGB">
<feFlood flood-opacity="0" result="BackgroundImageFix"/>
<feBlend mode="normal" in="SourceGraphic" in2="BackgroundImageFix" result="shape"/>
<feColorMatrix in="SourceAlpha" type="matrix" values="0 0 0 0 0 0 0 0 0 0 0 0 0 0 0 0 0 0 127 0" result="hardAlpha"/>
<feOffset dy="4"/>
<feGaussianBlur stdDeviation="2"/>
<feComposite in2="hardAlpha" operator="arithmetic" k2="-1" k3="1"/>
<feColorMatrix type="matrix" values="0 0 0 0 0 0 0 0 0 0 0 0 0 0 0 0 0 0 0.25 0"/>
<feBlend mode="normal" in2="shape" result="effect1_innerShadow_26_954"/>
</filter>
<filter id="filter5_i_26_954" x="5.13171" y="5.13173" width="112.36" height="127.259" filterUnits="userSpaceOnUse" color-interpolation-filters="sRGB">
<feFlood flood-opacity="0" result="BackgroundImageFix"/>
<feBlend mode="normal" in="SourceGraphic" in2="BackgroundImageFix" result="shape"/>
<feColorMatrix in="SourceAlpha" type="matrix" values="0 0 0 0 0 0 0 0 0 0 0 0 0 0 0 0 0 0 127 0" result="hardAlpha"/>
<feOffset dy="4"/>
<feGaussianBlur stdDeviation="2"/>
<feComposite in2="hardAlpha" operator="arithmetic" k2="-1" k3="1"/>
<feColorMatrix type="matrix" values="0 0 0 0 0 0 0 0 0 0 0 0 0 0 0 0 0 0 0.25 0"/>
<feBlend mode="normal" in2="shape" result="effect1_innerShadow_26_954"/>
</filter>
<filter id="filter6_f_26_954" x="144" y="0" width="134" height="134" filterUnits="userSpaceOnUse" color-interpolation-filters="sRGB">
<feFlood flood-opacity="0" result="BackgroundImageFix"/>
<feBlend mode="normal" in="SourceGraphic" in2="BackgroundImageFix" result="shape"/>
<feGaussianBlur stdDeviation="2" result="effect1_foregroundBlur_26_954"/>
</filter>
<filter id="filter7_i_26_954" x="148" y="4" width="126" height="130" filterUnits="userSpaceOnUse" color-interpolation-filters="sRGB">
<feFlood flood-opacity="0" result="BackgroundImageFix"/>
<feBlend mode="normal" in="SourceGraphic" in2="BackgroundImageFix" result="shape"/>
<feColorMatrix in="SourceAlpha" type="matrix" values="0 0 0 0 0 0 0 0 0 0 0 0 0 0 0 0 0 0 127 0" result="hardAlpha"/>
<feOffset dy="4"/>
<feGaussianBlur stdDeviation="2"/>
<feComposite in2="hardAlpha" operator="arithmetic" k2="-1" k3="1"/>
<feColorMatrix type="matrix" values="0 0 0 0 0 0 0 0 0 0 0 0 0 0 0 0 0 0 0.25 0"/>
<feBlend mode="normal" in2="shape" result="effect1_innerShadow_26_954"/>
</filter>
<filter id="filter8_i_26_954" x="149.132" y="5.13173" width="112.36" height="127.259" filterUnits="userSpaceOnUse" color-interpolation-filters="sRGB">
<feFlood flood-opacity="0" result="BackgroundImageFix"/>
<feBlend mode="normal" in="SourceGraphic" in2="BackgroundImageFix" result="shape"/>
<feColorMatrix in="SourceAlpha" type="matrix" values="0 0 0 0 0 0 0 0 0 0 0 0 0 0 0 0 0 0 127 0" result="hardAlpha"/>
<feOffset dy="4"/>
<feGaussianBlur stdDeviation="2"/>
<feComposite in2="hardAlpha" operator="arithmetic" k2="-1" k3="1"/>
<feColorMatrix type="matrix" values="0 0 0 0 0 0 0 0 0 0 0 0 0 0 0 0 0 0 0.25 0"/>
<feBlend mode="normal" in2="shape" result="effect1_innerShadow_26_954"/>
</filter>
</defs>
</svg>
