<svg width="293" height="268" viewBox="0 0 293 268" fill="none" xmlns="http://www.w3.org/2000/svg">
<g filter="url(#filter0_d_26_960)">
<path d="M212.959 75.6818C212.959 88.311 208.706 100.342 200.983 109.559C195.662 115.908 190.003 119.613 184.13 120.692L185.426 82.2368C192.609 79.7453 197.891 73.1508 198.413 65.33C198.906 62.7511 200.475 60.4947 202.734 59.1233C205.034 57.7286 207.831 57.3838 210.406 58.1777C211.933 58.6497 212.959 60.0351 212.959 61.6229V75.6818ZM96.7132 109.559C88.9898 100.342 84.736 88.311 84.736 75.6818V61.6229C84.736 60.0351 85.7627 58.6502 87.2911 58.1777C88.2009 57.8966 89.1401 57.7572 90.0741 57.7572C91.7816 57.7572 93.4755 58.2215 94.9622 59.1233C97.2218 60.4947 98.7901 62.7511 99.2841 65.33C99.8057 73.1519 105.088 79.7459 112.271 82.2373L113.567 120.692C107.691 119.613 102.035 115.909 96.7132 109.559ZM212.078 52.8432C207.958 51.5692 203.483 52.1216 199.801 54.3557C196.119 56.5899 193.584 60.2929 192.843 64.5157L192.807 64.8348C192.529 69.6653 189.695 73.8478 185.634 76.0558L186.187 59.6618C188.237 59.3065 189.799 57.5413 189.799 55.4034C192.208 55.4034 194.163 53.4632 194.163 51.0698C194.163 48.6764 192.208 46.7363 189.799 46.7363H107.898C105.488 46.7363 103.534 48.6764 103.534 51.0698C103.534 53.4632 105.488 55.4034 107.898 55.4034C107.898 57.5413 109.46 59.3065 111.51 59.6618L112.062 76.0563C108.002 73.8484 105.167 69.6653 104.889 64.8348L104.853 64.5157C104.113 60.2929 101.577 56.5899 97.8955 54.3557C94.2145 52.1216 89.7416 51.5709 85.6194 52.8432C81.7269 54.0466 79.1101 57.5752 79.1101 61.6229V75.6818C79.1101 89.6148 83.8262 102.914 92.3895 113.133C98.3408 120.236 104.807 124.554 111.667 126.047C111.556 126.416 111.49 126.806 111.49 127.213V127.602C111.49 129.273 112.492 130.704 113.927 131.358L113.94 131.741H115.658H116.738C120.788 143.28 129.973 152.064 141.296 154.814V159.251C141.296 161.578 142.907 163.515 145.076 164.068V172.955C140.755 173.279 137.087 175.89 135.283 179.576H132.622C129.335 179.576 126.671 182.223 126.671 185.487C126.671 186.44 126.919 187.326 127.322 188.123C121.81 189.157 117.638 193.957 117.638 199.732H180.059C180.059 193.957 175.886 189.157 170.374 188.123C170.778 187.326 171.025 186.44 171.025 185.487C171.025 182.223 168.361 179.576 165.074 179.576H162.414C160.609 175.89 156.941 173.279 152.621 172.955V164.068C154.79 163.515 156.4 161.578 156.4 159.251V154.814C167.724 152.064 176.909 143.28 180.958 131.741H182.039H183.757L183.77 131.358C185.204 130.704 186.207 129.273 186.207 127.602V127.213C186.207 126.806 186.141 126.416 186.03 126.047C192.889 124.553 199.354 120.235 205.307 113.133C213.87 102.915 218.586 89.6148 218.586 75.6818V61.6229C218.586 57.5752 215.97 54.0466 212.078 52.8432Z" fill="url(#paint0_linear_26_960)" stroke="#FBE0F9"/>
</g>
<path d="M276.296 164.334C276.296 164.334 274.962 166.125 272.837 167.806C272.88 167.684 272.928 167.564 272.971 167.442L273.609 165.376C275.15 164.64 276.296 164.334 276.296 164.334ZM265.717 184.427C266.063 183.744 266.409 183.063 266.744 182.375C268.041 182.014 268.934 181.903 268.934 181.903C268.934 181.903 267.667 183.171 265.717 184.427ZM256.124 200.338C256.589 199.694 257.044 199.039 257.5 198.386C258.879 198.199 259.812 198.21 259.812 198.21C259.812 198.21 258.317 199.34 256.124 200.338ZM243.96 215.042C244.603 214.362 245.245 213.68 245.878 212.984C247.808 212.898 249.165 213.101 249.165 213.101C249.165 213.101 246.929 214.356 243.96 215.042ZM237.052 226.417C237.052 226.417 234.286 227.525 230.887 227.707C230.587 227.723 230.309 227.714 230.022 227.715C230.341 227.449 230.659 227.182 230.984 226.92C231.445 226.535 231.916 226.153 232.383 225.771C235.062 225.836 237.052 226.417 237.052 226.417ZM223.502 237.995C223.502 237.995 220.59 238.726 217.155 238.442C216.237 238.365 215.4 238.218 214.629 238.052C215.511 237.542 216.392 237.032 217.284 236.517C217.328 236.519 217.366 236.517 217.41 236.52C220.845 236.804 223.502 237.995 223.502 237.995ZM212.708 234.411C212.232 234.68 211.749 234.954 211.276 235.221C211.053 234.306 210.852 233.23 210.76 232.053C210.493 228.641 211.245 225.752 211.245 225.752C211.245 225.752 212.43 228.398 212.696 231.812C212.769 232.746 212.752 233.605 212.708 234.411ZM208.657 247.666C208.657 247.666 205.651 247.996 202.245 247.237C200.764 246.906 199.484 246.429 198.475 245.989C198.812 245.863 199.137 245.742 199.477 245.614C199.925 245.434 200.368 245.216 200.814 245.018C201.428 245.093 202.072 245.195 202.737 245.343C206.143 246.103 208.657 247.666 208.657 247.666ZM197.84 241.677C197.441 241.821 197.061 241.96 196.664 242.103C196.62 241.424 196.593 240.709 196.627 239.941C196.781 236.478 197.889 233.683 197.889 233.683C197.889 233.683 198.75 236.502 198.596 239.966C198.574 240.471 198.512 240.938 198.456 241.407C198.25 241.493 198.047 241.596 197.84 241.677ZM183.608 246.037C183.586 246.167 183.549 246.277 183.525 246.404C182.843 246.589 182.162 246.773 181.49 246.954C181.532 246.555 181.573 246.156 181.643 245.739C182.233 242.278 183.692 239.622 183.692 239.622C183.692 239.622 184.197 242.576 183.608 246.037ZM187.068 252.021C190.376 253.257 192.692 255.179 192.692 255.179C192.692 255.179 189.646 255.093 186.339 253.855C184.348 253.11 182.755 252.136 181.772 251.463C182.296 251.318 182.841 251.165 183.372 251.016C184.441 251.211 185.73 251.518 187.068 252.021ZM170.596 256.202C173.733 257.911 175.794 260.169 175.794 260.169C175.794 260.169 172.769 259.657 169.632 257.948C168.412 257.283 167.383 256.547 166.547 255.882C167.234 255.682 167.93 255.477 168.635 255.271C169.266 255.532 169.926 255.838 170.596 256.202ZM165.998 249.12C167.031 245.718 168.829 243.249 168.829 243.249C168.829 243.249 168.951 246.293 167.918 249.695C167.791 250.11 167.639 250.478 167.495 250.861C166.805 251.057 166.128 251.249 165.455 251.44C165.586 250.705 165.75 249.933 165.998 249.12ZM273.556 134.322C271.027 132.456 269.387 130.131 269.387 130.131C269.387 130.131 271.849 130.831 274.38 132.697C275.222 133.317 275.93 133.976 276.545 134.596C276.545 134.607 276.545 134.619 276.544 134.631C276.516 135.103 276.491 135.576 276.463 136.048C275.611 135.643 274.601 135.092 273.556 134.322ZM278.01 147.761C279.884 146.315 281.519 145.624 281.519 145.624C281.519 145.624 280.153 148.141 277.825 150.309C277.691 150.434 277.559 150.533 277.425 150.649C277.634 149.689 277.845 148.73 278.01 147.761ZM274.961 117.809C272.251 116.293 270.34 114.21 270.34 114.21C270.34 114.21 272.823 114.583 275.534 116.099C275.948 116.33 276.319 116.58 276.691 116.828C276.729 117.424 276.776 118.018 276.808 118.616C276.809 118.64 276.81 118.663 276.81 118.686C276.222 118.445 275.606 118.169 274.961 117.809ZM273.644 101.616C270.804 100.463 268.659 98.6488 268.659 98.6488C268.659 98.6488 271.119 98.7048 273.96 99.8581C274.161 99.9397 274.335 100.037 274.529 100.124C274.656 100.767 274.777 101.413 274.895 102.061C274.49 101.933 274.074 101.791 273.644 101.616ZM269.694 85.9567C266.771 85.1674 264.431 83.6432 264.431 83.6432C264.431 83.6432 266.831 83.3987 269.754 84.1874C269.957 84.2428 270.135 84.3157 270.332 84.377C270.539 84.9912 270.738 85.6131 270.936 86.2337C270.536 86.1585 270.124 86.0727 269.694 85.9567ZM263.463 71.0146C260.507 70.5847 258.014 69.3643 258.014 69.3643C258.014 69.3643 260.316 68.8411 263.274 69.271C263.594 69.3171 263.888 69.3912 264.194 69.4536C264.472 70.0177 264.748 70.5817 265.009 71.1592C264.521 71.1353 264.008 71.0939 263.463 71.0146ZM255.216 56.9708C252.269 56.8921 249.665 55.985 249.665 55.985C249.665 55.985 251.84 55.2063 254.788 55.2856C255.25 55.2978 255.689 55.3445 256.125 55.3912C256.454 55.8917 256.784 56.3869 257.108 56.8985C256.524 56.9522 255.903 56.9895 255.216 56.9708ZM249.413 42.6197C249.02 42.1378 248.626 41.6572 248.227 41.1923C247.937 40.3855 247.648 39.465 247.459 38.4593C246.919 35.6197 247.344 33.4117 247.344 33.4117C247.344 33.4117 248.643 35.8081 249.182 38.6478C249.496 40.3021 249.479 41.7062 249.413 42.6197ZM245.106 44.0027C242.208 44.2617 239.533 43.6749 239.533 43.6749C239.533 43.6749 241.556 42.6663 244.454 42.4068C245.079 42.3502 245.688 42.3367 246.266 42.3455C246.299 42.3805 246.329 42.4149 246.362 42.4493C246.689 42.832 247.011 43.2362 247.334 43.6317C246.675 43.7875 245.937 43.9281 245.106 44.0027ZM236.988 29.7379C236.537 29.3582 236.125 29.0093 235.687 28.6389C235.382 28.0165 235.082 27.3515 234.832 26.6182C233.912 23.918 234.024 21.7218 234.024 21.7218C234.024 21.7218 235.63 23.904 236.551 26.6043C237.007 27.9407 237.208 29.1487 237.295 30.0319C237.196 29.9368 237.087 29.833 236.988 29.7379ZM233.287 32.2795C230.477 32.864 227.768 32.5986 227.768 32.5986C227.768 32.5986 229.615 31.3864 232.426 30.8019C233.175 30.6462 233.893 30.5651 234.578 30.5091C234.901 30.7856 235.203 31.0428 235.533 31.3252C235.607 31.3957 235.689 31.4745 235.762 31.5457C235.069 31.8146 234.235 32.0823 233.287 32.2795ZM221.738 18.017C221.719 18.003 221.702 17.9925 221.682 17.9797C221.326 17.4465 220.972 16.8766 220.652 16.2489C219.376 13.7382 219.186 11.5957 219.186 11.5957C219.186 11.5957 221.066 13.5242 222.343 16.0348C222.953 17.2353 223.308 18.3396 223.52 19.1767C222.91 18.7794 222.291 18.3769 221.738 18.017ZM219.908 21.9166C217.223 22.8102 214.521 22.8686 214.521 22.8686C214.521 22.8686 216.172 21.4779 218.858 20.5848C219.622 20.3305 220.362 20.1625 221.065 20.026C221.47 20.2931 221.902 20.5778 222.337 20.8648C221.672 21.2218 220.862 21.5992 219.908 21.9166ZM209.117 14.0597C205.252 12.8195 202.468 10.7376 202.468 10.7376C202.468 10.7376 205.952 10.6676 209.818 11.9077C211.463 12.4351 212.902 13.1135 214.024 13.7201L213.264 14.9889C212.059 14.8221 210.623 14.5427 209.117 14.0597ZM279.535 134.76C279.563 134.045 279.59 133.337 279.618 132.624C279.781 132.399 279.921 132.176 280.099 131.953C282.06 129.504 284.258 128.198 284.258 128.198C284.258 128.198 283.277 130.863 281.316 133.313C280.711 134.068 280.089 134.701 279.512 135.234C279.518 135.076 279.526 134.918 279.535 134.76ZM280.972 114.625C282.533 111.953 284.481 110.38 284.481 110.38C284.481 110.38 283.901 113.138 282.341 115.81C281.42 117.386 280.387 118.549 279.677 119.262C279.668 118.998 279.654 118.735 279.649 118.47C279.63 118.179 279.604 117.892 279.584 117.603C279.918 116.705 280.365 115.665 280.972 114.625ZM276.837 153.372C279.681 153.076 283.753 152.051 285.952 148.729C289.557 143.288 291.172 136.122 291.172 136.122C291.172 136.122 282.632 137.095 279.027 142.536C278.89 142.743 278.765 142.949 278.634 143.155L278.652 143.008L279.177 138.867L279.437 136.802C279.438 136.786 279.437 136.769 279.439 136.753C282.055 136.297 286.993 134.895 288.976 130.682C291.729 124.831 292.32 117.539 292.32 117.539C292.32 117.539 284.178 119.623 281.425 125.475C280.759 126.893 280.201 128.296 279.736 129.611C279.774 128.623 279.814 127.628 279.852 126.644C279.938 124.292 279.784 122.063 279.695 119.814C281.176 119.47 287.752 117.657 289.397 112.224C291.252 106.092 290.813 98.8157 290.813 98.8157C290.813 98.8157 283.214 101.925 281.359 108.057C280.268 111.663 279.782 115.1 279.564 117.334C279.236 112.568 278.707 107.864 277.862 103.282C278.07 103.191 278.235 103.114 278.324 103.07C279.199 102.76 285.985 100.168 286.864 94.2954C287.804 88.0158 286.359 80.8968 286.359 80.8968C286.359 80.8968 279.424 84.9177 278.484 91.1973C277.896 95.1208 277.943 98.7883 278.061 100.989C278.259 100.031 278.563 98.8816 279.029 97.7219C280.169 94.8916 281.838 93.0955 281.838 93.0955C281.838 93.0955 281.66 95.8879 280.522 98.7188C279.764 100.602 278.773 102.023 278.194 102.767C278.074 102.754 277.909 102.728 277.764 102.708C277.761 102.689 277.758 102.669 277.754 102.65C276.782 97.3072 275.471 92.1312 273.904 87.1572C274.161 87.0037 274.348 86.8836 274.445 86.8188C275.251 86.4058 281.482 83.0295 281.511 77.1425C281.543 70.8477 279.139 64.0175 279.139 64.0175C279.139 64.0175 272.965 68.8189 272.933 75.1137C272.913 79.0459 273.473 82.6503 273.898 84.8017C273.955 83.8351 274.089 82.6667 274.38 81.4685C275.089 78.5442 276.459 76.5737 276.459 76.5737C276.459 76.5737 276.679 79.3434 275.969 82.2677C275.497 84.2137 274.735 85.7332 274.276 86.5353C274.116 86.5377 273.903 86.5324 273.699 86.5283C272.291 82.1376 270.689 77.9002 268.924 73.8636C268.563 73.1006 268.224 72.3382 267.881 71.5757C268.027 71.4562 268.147 71.3558 268.212 71.2992C268.94 70.7982 274.534 66.7475 273.74 60.9637C272.89 54.7798 269.59 48.3579 269.59 48.3579C269.59 48.3579 264.249 53.8016 265.1 59.9861C265.63 63.8495 266.682 67.3215 267.397 69.383C267.317 68.4275 267.284 67.2649 267.399 66.0545C267.68 63.0988 268.738 61.0022 268.738 61.0022C268.738 61.0022 269.341 63.6961 269.059 66.6512C268.872 68.6171 268.342 70.1991 268.007 71.0414C267.909 71.0542 267.77 71.0665 267.656 71.0793C267.096 69.8427 266.533 68.6188 265.906 67.4417C264.802 65.3883 263.714 63.3659 262.645 61.3767C261.689 59.8239 260.75 58.2973 259.806 56.7976C259.836 56.7637 259.873 56.7241 259.893 56.7013C260.534 56.1273 265.434 51.5149 263.852 45.9441C262.161 39.9877 258.045 34.0808 258.045 34.0808C258.045 34.0808 253.586 40.0279 255.278 45.9843C256.335 49.7054 257.845 52.9832 258.83 54.9192C258.62 53.9935 258.425 52.8583 258.369 51.6602C258.232 48.7342 258.973 46.5583 258.973 46.5583C258.973 46.5583 259.937 49.1268 260.073 52.0522C260.165 53.9993 259.868 55.6099 259.657 56.4721C259.644 56.4756 259.624 56.4797 259.61 56.4832C258.28 54.3797 256.935 52.3415 255.5 50.4375C254.893 49.5852 254.29 48.7417 253.694 47.907C253.078 47.0874 252.416 46.3168 251.791 45.5328C251.105 44.7004 250.438 43.8715 249.775 43.0542C250.644 42.0031 254.229 37.2186 252.037 32.2544C249.554 26.6346 244.706 21.3403 244.706 21.3403C244.706 21.3403 241.163 27.6531 243.645 33.2729C244.937 36.1989 246.49 38.7772 247.687 40.5879C245.221 37.9419 242.972 35.3286 240.561 33.1545C239.638 32.2719 238.76 31.4319 237.882 30.5919C238.754 29.1272 241.15 24.3788 238.473 20.0592C235.261 14.8763 229.771 10.2814 229.771 10.2814C229.771 10.2814 227.162 16.8281 230.373 22.0099C231.697 24.1449 233.148 26.0472 234.405 27.5568C234.1 27.2984 233.771 27.0207 233.472 26.7687C231.264 24.8157 229.066 23.2081 227.084 21.7527C226.098 21.0206 225.164 20.3276 224.286 19.6754C224.27 19.6655 224.257 19.6579 224.242 19.6474C224.929 18.0152 226.492 13.2558 223.336 9.46592C219.464 4.81558 213.429 1 213.429 1C213.429 1 211.759 7.64942 215.632 12.3003C217.134 14.104 218.701 15.6633 220.086 16.9425C219.212 16.3749 218.401 15.847 217.721 15.4048C216.483 14.6727 215.575 14.1343 214.992 13.789C213.437 10.7143 209.456 4.10101 203.445 2.87718C195.565 1.27184 187.056 2.96932 187.056 2.96932C187.056 2.96932 193.171 12.8656 201.051 14.4709C206.474 15.5752 211.387 15.5868 213.923 15.4865C214.488 15.8248 215.382 16.3597 216.603 17.0912C217.689 17.8058 219.03 18.6878 220.607 19.7244C220.625 19.7367 220.648 19.7513 220.666 19.7635C218.523 19.6352 215.586 19.578 212.493 19.8854C206.447 20.488 202.925 26.382 202.925 26.382C202.925 26.382 209.918 27.8835 215.964 27.2815C220.148 26.865 222.405 23.5767 223.4 21.5887C224.182 22.1773 224.995 22.7881 225.863 23.4408C227.788 24.8717 229.923 26.4479 232.092 28.3869C232.754 28.9528 233.465 29.5594 234.159 30.1515C232.051 29.7747 229.205 29.3862 226.164 29.329C220.038 29.2147 215.685 34.7715 215.685 34.7715C215.685 34.7715 222.459 37.1346 228.586 37.2489C232.737 37.3265 235.429 34.3923 236.737 32.4883C237.493 33.2192 238.239 33.9414 239.029 34.705C241.314 36.784 243.446 39.2713 245.765 41.7972C243.767 41.2062 241.178 40.5605 238.389 40.1784C232.267 39.3402 227.119 44.4472 227.119 44.4472C227.119 44.4472 233.571 47.6363 239.692 48.474C243.664 49.0177 246.692 46.6073 248.329 44.8468C248.88 45.5357 249.432 46.2322 250.001 46.9299C250.612 47.7034 251.259 48.4635 251.86 49.2714C252.44 50.0945 253.027 50.9269 253.62 51.7675C254.295 52.6734 254.948 53.6132 255.59 54.5698C253.756 53.8045 251.484 52.968 249.014 52.3269C242.985 50.763 237.084 55.3054 237.084 55.3054C237.084 55.3054 243.111 59.2773 249.14 60.8412C252.872 61.8096 256.118 59.9686 258.056 58.4233C258.894 59.7784 259.729 61.151 260.578 62.5463C261.589 64.4509 262.618 66.3899 263.661 68.3552C262.019 67.4446 260.044 66.4582 257.883 65.6129C252.036 63.3257 245.443 67.1873 245.443 67.1873C245.443 67.1873 250.943 71.8931 256.79 74.1809C260.259 75.5372 263.65 74.2492 265.84 72.9769C266.115 73.5964 266.385 74.2147 266.675 74.8337C267.818 77.4767 268.876 80.2143 269.858 83.0167C268.414 81.9877 266.714 80.8805 264.84 79.8707C259.267 76.8707 252.059 79.9367 252.059 79.9367C252.059 79.9367 256.932 85.3156 262.504 88.3162C265.708 90.0417 269.199 89.2682 271.589 88.3005C272.608 91.6821 273.493 95.1605 274.241 98.7142C272.926 97.5008 271.375 96.1837 269.615 94.9348C264.415 91.2428 256.683 93.4012 256.683 93.4012C256.683 93.4012 260.834 99.3803 266.035 103.072C269.042 105.208 272.708 104.856 275.267 104.182C275.913 107.979 276.345 111.855 276.622 115.78C275.356 114.211 273.761 112.396 271.843 110.635C267.11 106.287 258.973 107.44 258.973 107.44C258.973 107.44 262.315 113.929 267.048 118.277C270.006 120.993 274.153 120.919 276.854 120.482C276.924 122.507 277.029 124.557 276.936 126.518C276.812 129.086 276.687 131.668 276.563 134.259C275.455 132.288 273.711 129.493 271.418 126.775C267.241 121.825 258.834 121.893 258.834 121.893C258.834 121.893 261.295 128.788 265.473 133.739C268.518 137.348 273.747 137.395 276.36 137.157L276.154 138.657L275.606 142.649L275.059 146.652C274.868 147.986 274.489 149.303 274.214 150.631C274.02 151.436 273.846 152.247 273.667 153.056C272.767 152.568 271.286 151.661 269.821 150.265C267.517 148.07 266.179 145.539 266.179 145.539C266.179 145.539 268.577 146.567 270.881 148.762C271.825 149.661 272.604 150.614 273.197 151.429C272.399 149.335 270.918 145.903 268.706 142.48C265.163 136.998 256.634 135.931 256.634 135.931C256.634 135.931 258.168 143.113 261.71 148.595C264.842 153.44 271.961 153.522 273.573 153.476C273.197 155.185 272.817 156.893 272.342 158.58L269.855 166.378C269.773 166.604 269.683 166.828 269.599 167.053C269.102 167.836 268.673 168.553 268.336 169.146C268.548 168.933 268.813 168.701 269.059 168.475C268.811 169.127 268.568 169.782 268.31 170.431C267.991 170.56 267.705 170.667 267.469 170.749C266.639 170.164 265.176 169.016 263.819 167.355C261.782 164.861 260.769 162.164 260.769 162.164C260.769 162.164 263.059 163.511 265.096 166.006C265.932 167.028 266.591 168.081 267.082 168.971C266.556 166.783 265.52 163.17 263.741 159.467C260.893 153.538 252.397 151.317 252.397 151.317C252.397 151.317 252.981 158.663 255.83 164.593C258.494 170.137 266.408 170.992 267.422 171.08C267.533 171.101 267.739 171.137 268.002 171.178C266.431 175.064 264.689 178.875 262.779 182.586C261.747 183.731 260.876 184.79 260.249 185.603C260.683 185.277 261.189 184.928 261.738 184.581C261.348 185.307 260.945 186.024 260.541 186.74C260.009 186.888 259.522 187.009 259.163 187.08C258.399 186.384 257.067 185.043 255.912 183.206C254.175 180.447 253.503 177.626 253.503 177.626C253.503 177.626 255.644 179.279 257.381 182.038C258.092 183.168 258.623 184.305 259.003 185.259C258.756 183.009 258.18 179.275 256.863 175.348C254.754 169.062 246.447 165.694 246.447 165.694C246.447 165.694 246.078 173.082 248.186 179.369C250.158 185.248 258.057 187.177 259.072 187.403C259.227 187.454 259.563 187.559 260.014 187.681C258.505 190.312 256.916 192.889 255.226 195.385C254.455 196.489 253.631 197.539 252.832 198.616C251.93 199.402 251.164 200.122 250.565 200.713C250.904 200.524 251.307 200.329 251.706 200.136C251.254 200.73 250.825 201.349 250.364 201.934C249.95 201.982 249.574 202.018 249.28 202.035C248.596 201.238 247.421 199.719 246.486 197.732C245.08 194.747 244.757 191.844 244.757 191.844C244.757 191.844 246.713 193.783 248.118 196.77C248.693 197.993 249.086 199.197 249.35 200.198C249.386 197.924 249.277 194.126 248.443 190.034C247.108 183.484 239.138 178.995 239.138 178.995C239.138 178.995 237.829 186.305 239.164 192.855C240.411 198.982 248.151 201.98 249.148 202.344C249.265 202.401 249.485 202.504 249.784 202.633C246.127 207.221 242.218 211.503 238.126 215.485C238.109 215.483 238.085 215.483 238.068 215.482C237.477 214.593 236.478 212.917 235.781 210.806C234.733 207.635 234.766 204.695 234.766 204.695C234.766 204.695 236.499 206.896 237.547 210.068C237.977 211.366 238.223 212.623 238.365 213.659C238.683 211.393 239.042 207.587 238.707 203.39C238.171 196.67 230.686 191.104 230.686 191.104C230.686 191.104 228.462 198.22 228.998 204.941C229.494 211.152 236.756 215.175 237.85 215.747C236.71 216.85 235.583 217.975 234.415 219.028C232.473 220.695 230.459 222.251 228.516 223.845C227.528 224.623 226.589 225.454 225.574 226.176C225.447 226.263 225.321 226.35 225.194 226.436C224.738 225.411 224.197 223.969 223.86 222.294C223.192 218.979 223.584 216.043 223.584 216.043C223.584 216.043 225.06 218.481 225.728 221.796C226.002 223.154 226.096 224.443 226.113 225.499C226.709 223.277 227.535 219.52 227.711 215.276C227.991 208.485 221.136 201.895 221.136 201.895C221.136 201.895 218.029 208.707 217.749 215.5C217.529 220.827 222.398 225.239 224.513 226.898C223.841 227.355 223.168 227.814 222.501 228.268C220.442 229.624 218.493 231.101 216.412 232.314C215.322 232.932 214.258 233.534 213.181 234.143C213.982 231.972 214.923 228.957 215.481 225.552C216.592 218.783 210.512 211.24 210.512 211.24C210.512 211.24 206.561 217.64 205.452 224.408C204.687 229.067 207.951 233.558 210.061 235.91C208.098 237.101 205.997 237.962 203.981 238.914C202.464 239.59 200.987 240.292 199.503 240.95C200.406 239.055 201.387 236.695 202.157 234.066C204.103 227.426 198.944 219.014 198.944 219.014C198.944 219.014 194.198 224.893 192.253 231.533C191.059 235.607 193.085 239.985 194.832 242.768C193.794 243.146 192.737 243.529 191.717 243.899C190.715 244.263 189.723 244.624 188.741 244.98C187.74 245.284 186.734 245.532 185.746 245.805C185.535 245.862 185.335 245.915 185.125 245.973C186.06 244.42 187.039 242.603 187.908 240.601C190.686 234.195 186.589 225.02 186.589 225.02C186.589 225.02 181.109 230.271 178.33 236.676C176.761 240.295 177.888 244.553 179.165 247.581C177.528 248.022 175.723 248.518 174.213 248.96C172.409 249.47 170.653 249.967 168.944 250.451C170.214 248.897 171.614 246.999 172.904 244.823C176.5 238.763 173.6 228.953 173.6 228.953C173.6 228.953 167.46 233.472 163.864 239.533C161.541 243.447 162.622 248.706 163.679 251.941C157.234 253.736 151.596 255.241 146.945 256.394C142.262 257.548 138.556 258.383 136.106 258.768C135.475 258.897 134.985 258.919 134.529 258.987C134.086 259.04 133.67 259.105 133.503 259.077C133.08 259.074 132.86 259.098 132.86 259.098L132.218 263.936C132.218 263.936 132.695 263.939 133.617 263.947C134.127 263.959 134.539 263.883 135.082 263.815C135.609 263.737 136.272 263.683 136.918 263.545C139.618 263.092 143.368 262.206 148.123 260.99C152.868 259.768 158.582 258.186 165.108 256.304C165.191 256.28 165.283 256.254 165.367 256.229C166.617 259.075 169.748 264.908 174.872 266.275C181.713 268.098 189.283 267.051 189.283 267.051C189.283 267.051 184.433 258.032 177.592 256.209C174.812 255.469 172.178 255.075 170.019 254.865C171.79 254.347 173.609 253.813 175.48 253.265C177.376 252.7 178.971 252.238 181.007 251.678C181.088 251.655 181.174 251.631 181.255 251.609C182.084 253.16 186.32 260.508 192.554 261.262C199.525 262.105 206.854 260.047 206.854 260.047C206.854 260.047 200.936 251.911 193.964 251.069C189.668 250.549 185.79 250.761 183.438 250.999C184.623 250.667 185.791 250.341 187.006 250.001C188.023 249.708 189.064 249.441 190.095 249.118C191.108 248.74 192.132 248.357 193.165 247.972C194.567 247.45 196.012 246.909 197.448 246.372C199.115 248.519 203.735 253.731 209.271 253.631C216.233 253.507 223.188 250.498 223.188 250.498C223.188 250.498 216.366 243.349 209.403 243.475C207.034 243.517 204.825 243.762 202.927 244.065C203.878 243.611 204.831 243.147 205.801 242.703C207.923 241.677 210.138 240.749 212.196 239.46C212.488 239.29 212.789 239.117 213.081 238.947C215.38 241.045 220.003 244.508 224.824 243.757C231.644 242.694 238.111 238.807 238.111 238.807C238.111 238.807 230.551 232.726 223.729 233.79C222.677 233.954 221.662 234.154 220.695 234.375C222.067 233.443 223.426 232.478 224.822 231.539C225.849 230.826 226.881 230.108 227.919 229.388C230.599 231.085 234.933 233.121 239.032 231.896C245.587 229.936 251.458 225.254 251.458 225.254C251.458 225.254 243.328 220.298 236.772 222.257C236.673 222.288 236.579 222.321 236.48 222.35C236.657 222.198 236.84 222.054 237.016 221.899C238.523 220.519 239.998 219.084 241.456 217.621C244.276 218.799 248.268 219.808 251.754 218.226C257.927 215.423 263.106 210.032 263.106 210.032C263.106 210.032 255.726 206.764 249.727 208.558C251.011 207.022 252.275 205.463 253.503 203.863C256.325 204.533 259.987 204.789 262.955 202.916C268.635 199.331 273.034 193.328 273.034 193.328C273.034 193.328 266.311 191.341 260.827 193.245C261.806 191.633 262.745 189.994 263.656 188.335C266.459 188.595 269.966 188.33 272.574 186.128C277.656 181.834 281.192 175.324 281.192 175.324C281.192 175.324 274.353 174.252 269.246 176.903C270.033 175.085 270.796 173.255 271.509 171.404C274.342 171.355 277.985 170.696 280.369 168.023C284.755 163.106 287.358 156.204 287.358 156.204C287.358 156.204 279.915 156.049 275.311 159.866L275.449 159.42C275.99 157.423 276.408 155.395 276.837 153.372Z" fill="url(#paint1_linear_26_960)" stroke="#FBE0F9"/>
<path d="M125.825 250.861C125.68 250.478 125.528 250.11 125.402 249.695C124.369 246.293 124.491 243.249 124.491 243.249C124.491 243.249 126.289 245.718 127.322 249.12C127.569 249.933 127.732 250.705 127.865 251.44C127.192 251.249 126.514 251.057 125.825 250.861ZM123.687 257.948C120.551 259.657 117.526 260.169 117.526 260.169C117.526 260.169 119.587 257.911 122.723 256.202C123.394 255.838 124.054 255.532 124.685 255.271C125.389 255.477 126.086 255.682 126.772 255.882C125.937 256.547 124.908 257.283 123.687 257.948ZM109.795 246.404C109.77 246.277 109.734 246.167 109.712 246.037C109.123 242.576 109.628 239.622 109.628 239.622C109.628 239.622 111.087 242.278 111.676 245.739C111.747 246.156 111.786 246.555 111.829 246.954C111.158 246.773 110.477 246.589 109.795 246.404ZM106.98 253.855C103.674 255.093 100.628 255.179 100.628 255.179C100.628 255.179 102.943 253.257 106.25 252.021C107.59 251.518 108.879 251.211 109.947 251.016C110.478 251.165 111.023 251.318 111.547 251.463C110.565 252.136 108.972 253.11 106.98 253.855ZM96.655 242.103C96.2585 241.96 95.8779 241.821 95.4797 241.677C95.2729 241.596 95.0691 241.493 94.8641 241.407C94.8072 240.938 94.7461 240.471 94.7231 239.966C94.5698 236.502 95.4298 233.683 95.4298 233.683C95.4298 233.683 96.5387 236.478 96.6926 239.941C96.7267 240.709 96.7002 241.424 96.655 242.103ZM91.0744 247.237C87.6688 247.996 84.662 247.666 84.662 247.666C84.662 247.666 87.1766 246.103 90.5822 245.343C91.2471 245.195 91.892 245.093 92.5064 245.018C92.951 245.216 93.3939 245.434 93.8427 245.614C94.1828 245.742 94.5064 245.863 94.8447 245.989C93.835 246.429 92.5558 246.906 91.0744 247.237ZM82.5592 232.053C82.4676 233.23 82.2667 234.306 82.0429 235.221C81.5695 234.954 81.0879 234.68 80.6115 234.411C80.568 233.605 80.5504 232.746 80.6238 231.812C80.8899 228.398 82.074 225.752 82.074 225.752C82.074 225.752 82.8259 228.641 82.5592 232.053ZM76.1639 238.442C72.7289 238.726 69.8167 237.995 69.8167 237.995C69.8167 237.995 72.474 236.804 75.909 236.52C75.953 236.517 75.9918 236.519 76.0353 236.517C76.9275 237.032 77.8085 237.542 78.6902 238.052C77.9196 238.218 77.0825 238.365 76.1639 238.442ZM62.4329 227.707C59.0337 227.525 56.2684 226.417 56.2684 226.417C56.2684 226.417 58.2572 225.836 60.9368 225.771C61.4032 226.153 61.8743 226.535 62.3348 226.92C62.6608 227.182 62.9779 227.449 63.2975 227.715C63.0097 227.714 62.7324 227.723 62.4329 227.707ZM44.1544 213.101C44.1544 213.101 45.513 212.898 47.4407 212.984C48.0739 213.68 48.7153 214.362 49.3597 215.042C46.3905 214.356 44.1544 213.101 44.1544 213.101ZM33.5076 198.21C33.5076 198.21 34.441 198.199 35.8195 198.386C36.2759 199.039 36.7317 199.694 37.1963 200.338C35.0025 199.34 33.5076 198.21 33.5076 198.21ZM24.3857 181.903C24.3857 181.903 25.2785 182.014 26.576 182.375C26.9102 183.063 27.2568 183.744 27.6022 184.427C25.6515 183.171 24.3857 181.903 24.3857 181.903ZM17.0236 164.334C17.0236 164.334 18.1689 164.64 19.7102 165.376L20.3481 167.442C20.391 167.564 20.4391 167.684 20.4826 167.806C18.3575 166.125 17.0236 164.334 17.0236 164.334ZM16.7751 134.631C16.7745 134.619 16.7739 134.607 16.7733 134.596C17.3895 133.976 18.0979 133.317 18.9402 132.697C21.47 130.831 23.9323 130.131 23.9323 130.131C23.9323 130.131 22.2929 132.456 19.7631 134.322C18.7181 135.092 17.7079 135.643 16.8562 136.048C16.8286 135.576 16.8033 135.103 16.7751 134.631ZM15.4952 150.309C13.1669 148.141 11.8012 145.624 11.8012 145.624C11.8012 145.624 13.4347 146.315 15.309 147.761C15.4747 148.73 15.6861 149.689 15.894 150.649C15.7601 150.533 15.6285 150.434 15.4952 150.309ZM12.0033 133.313C10.0426 130.863 9.06112 128.198 9.06112 128.198C9.06112 128.198 11.2591 129.504 13.2197 131.953C13.3989 132.176 13.5393 132.399 13.7014 132.624C13.7296 133.337 13.7572 134.045 13.7848 134.76C13.7924 134.918 13.8018 135.076 13.8071 135.234C13.2303 134.701 12.6083 134.068 12.0033 133.313ZM10.9795 115.81C9.41942 113.138 8.83851 110.38 8.83851 110.38C8.83851 110.38 10.7868 111.953 12.3469 114.625C12.9542 115.665 13.4012 116.705 13.7354 117.603C13.7155 117.892 13.689 118.179 13.6708 118.47C13.6655 118.735 13.652 118.998 13.6432 119.262C12.9331 118.549 11.9005 117.386 10.9795 115.81ZM16.5125 118.616C16.5443 118.018 16.5907 117.424 16.6283 116.828C17.0007 116.58 17.3725 116.33 17.786 116.099C20.4961 114.583 22.9795 114.21 22.9795 114.21C22.9795 114.21 21.0688 116.293 18.3587 117.809C17.7137 118.169 17.0982 118.445 16.5102 118.686C16.5102 118.663 16.512 118.64 16.5125 118.616ZM18.791 100.124C18.9848 100.037 19.1581 99.9397 19.359 99.8581C22.2001 98.7048 24.6612 98.6488 24.6612 98.6488C24.6612 98.6488 22.5155 100.463 19.6744 101.616C19.245 101.791 18.8291 101.933 18.425 102.061C18.5431 101.413 18.6635 100.767 18.791 100.124ZM22.9883 84.377C23.1845 84.3157 23.3631 84.2428 23.5657 84.1874C26.4885 83.3987 28.8879 83.6432 28.8879 83.6432C28.8879 83.6432 26.5484 85.1674 23.6256 85.9567C23.1963 86.0727 22.7839 86.1585 22.3833 86.2337C22.5825 85.6131 22.7804 84.9912 22.9883 84.377ZM29.1246 69.4536C29.4318 69.3912 29.7249 69.3171 30.0456 69.271C33.0031 68.8411 35.3056 69.3643 35.3056 69.3643C35.3056 69.3643 32.8133 70.5847 29.8553 71.0146C29.312 71.0939 28.7992 71.1353 28.3105 71.1592C28.5713 70.5817 28.848 70.0177 29.1246 69.4536ZM37.1946 55.3912C37.6304 55.3445 38.0692 55.2978 38.5314 55.2856C41.4795 55.2063 43.6551 55.985 43.6551 55.985C43.6551 55.985 41.0513 56.8921 38.1032 56.9708C37.4172 56.9895 36.7952 56.9522 36.2113 56.8985C36.5349 56.3869 36.8662 55.8917 37.1946 55.3912ZM44.1373 38.6478C44.6765 35.8081 45.9758 33.4117 45.9758 33.4117C45.9758 33.4117 46.4005 35.6197 45.8619 38.4593C45.6704 39.465 45.382 40.3855 45.0924 41.1928C44.6936 41.6572 44.2994 42.1378 43.9053 42.6197C43.8401 41.7062 43.8237 40.3021 44.1373 38.6478ZM46.9579 42.4493C46.9902 42.4149 47.0202 42.3805 47.0531 42.3455C47.6322 42.3367 48.2401 42.3502 48.8657 42.4068C51.7638 42.6663 53.7867 43.6749 53.7867 43.6749C53.7867 43.6749 51.1112 44.2617 48.2125 44.0027C47.3826 43.9281 46.6442 43.7875 45.9852 43.6317C46.3089 43.2362 46.6301 42.832 46.9579 42.4493ZM56.7682 26.6043C57.6892 23.904 59.2951 21.7218 59.2951 21.7218C59.2951 21.7218 59.4079 23.918 58.4875 26.6182C58.2378 27.3515 57.9371 28.0165 57.6328 28.6389C57.1947 29.0093 56.7817 29.3582 56.3318 29.7379C56.2325 29.833 56.1233 29.9368 56.024 30.0319C56.1115 29.1487 56.313 27.9407 56.7682 26.6043ZM60.8933 30.8019C63.7033 31.3864 65.5506 32.5986 65.5506 32.5986C65.5506 32.5986 62.8428 32.864 60.0328 32.2795C59.0854 32.0823 58.2513 31.8146 57.5571 31.5457C57.6311 31.4745 57.7121 31.3957 57.7856 31.3252C58.1162 31.0428 58.4176 30.7856 58.7418 30.5091C59.4261 30.5651 60.1444 30.6462 60.8933 30.8019ZM70.9768 16.0348C72.2538 13.5242 74.1339 11.5957 74.1339 11.5957C74.1339 11.5957 73.9442 13.7382 72.6673 16.2489C72.3471 16.8766 71.9935 17.4465 71.637 17.9797C71.617 17.9925 71.6012 18.003 71.5806 18.017C71.0279 18.3769 70.4094 18.7794 69.7997 19.1767C70.0117 18.3396 70.3665 17.2353 70.9768 16.0348ZM74.4611 20.5848C77.1466 21.4779 78.7989 22.8686 78.7989 22.8686C78.7989 22.8686 76.0969 22.8102 73.4109 21.9166C72.457 21.5992 71.6464 21.2218 70.9827 20.8648C71.4167 20.5778 71.849 20.2931 72.2549 20.026C72.9574 20.1625 73.6969 20.3305 74.4611 20.5848ZM90.8512 10.7376C90.8512 10.7376 88.0676 12.8195 84.2015 14.0597C82.6961 14.5427 81.2605 14.8221 80.0564 14.9889L79.2964 13.7196C80.4177 13.1129 81.8567 12.4351 83.502 11.9077C87.3675 10.6676 90.8512 10.7376 90.8512 10.7376ZM160.46 259.098C160.46 259.098 160.24 259.074 159.816 259.077C159.649 259.105 159.234 259.04 158.791 258.987C158.333 258.919 157.845 258.897 157.213 258.768C154.763 258.383 151.058 257.548 146.374 256.394C141.724 255.241 136.085 253.736 129.64 251.941C130.697 248.706 131.778 243.447 129.456 239.533C125.86 233.472 119.719 228.953 119.719 228.953C119.719 228.953 116.818 238.763 120.415 244.823C121.705 246.999 123.105 248.897 124.376 250.451C122.666 249.967 120.911 249.47 119.107 248.96C117.597 248.518 115.791 248.022 114.155 247.581C115.431 244.553 116.559 240.295 114.989 236.676C112.21 230.271 106.731 225.02 106.731 225.02C106.731 225.02 102.634 234.195 105.412 240.601C106.28 242.603 107.259 244.42 108.194 245.973C107.984 245.915 107.785 245.862 107.573 245.805C106.586 245.532 105.578 245.284 104.579 244.98C103.596 244.624 102.604 244.263 101.602 243.899C100.583 243.529 99.5267 243.146 98.4876 242.768C100.234 239.985 102.26 235.607 101.067 231.533C99.1208 224.893 94.376 219.014 94.376 219.014C94.376 219.014 89.2165 227.426 91.1619 234.066C91.932 236.695 92.9123 239.055 93.8163 240.95C92.3331 240.292 90.8553 239.59 89.3375 238.914C87.3228 237.962 85.2218 237.101 83.2588 235.91C85.3686 233.558 88.6315 229.067 87.8673 224.408C86.7578 217.64 82.8071 211.24 82.8071 211.24C82.8071 211.24 76.7278 218.783 77.8373 225.552C78.3959 228.957 79.3375 231.972 80.1375 234.143C79.0614 233.534 77.9977 232.932 76.9075 232.314C74.8259 231.101 72.8775 229.624 70.8188 228.268C70.1515 227.814 69.4784 227.355 68.8059 226.898C70.9222 225.239 75.7909 220.827 75.5707 215.5C75.2905 208.707 72.1833 201.895 72.1833 201.895C72.1833 201.895 65.3286 208.485 65.6088 215.276C65.7838 219.52 66.6108 223.277 67.2059 225.499C67.2241 224.443 67.318 223.154 67.5918 221.796C68.2596 218.481 69.7351 216.043 69.7351 216.043C69.7351 216.043 70.1275 218.979 69.4596 222.294C69.1219 223.969 68.5809 225.411 68.1263 226.436C67.9988 226.35 67.8725 226.263 67.7445 226.176C66.7307 225.454 65.7915 224.623 64.8035 223.845C62.8593 222.251 60.8464 220.695 58.9051 219.028C57.7362 217.975 56.609 216.85 55.4689 215.747C56.5638 215.174 63.8255 211.152 64.3213 204.941C64.8575 198.22 62.6332 191.104 62.6332 191.104C62.6332 191.104 55.1482 196.67 54.612 203.39C54.2772 207.587 54.6366 211.393 54.9538 213.659C55.0971 212.623 55.3432 211.366 55.7726 210.068C56.8205 206.896 58.5527 204.695 58.5527 204.695C58.5527 204.695 58.5873 207.635 57.5383 210.806C56.8411 212.917 55.8431 214.593 55.2516 215.482C55.2358 215.483 55.2105 215.483 55.1941 215.485C51.1024 211.503 47.1934 207.221 43.5353 202.633C43.8348 202.504 44.0539 202.401 44.1714 202.344C45.1688 201.98 52.908 198.982 54.1562 192.855C55.4907 186.305 54.182 178.995 54.182 178.995C54.182 178.995 46.2114 183.484 44.8768 190.034C44.0428 194.126 43.9341 197.924 43.9693 200.198C44.2337 199.197 44.6254 197.993 45.2011 196.77C46.6067 193.783 48.5614 191.844 48.5614 191.844C48.5614 191.844 48.239 194.747 46.834 197.732C45.8989 199.719 44.7229 201.238 44.0392 202.035C43.7444 202.018 43.3696 201.982 42.9549 201.934C42.4944 201.349 42.0662 200.73 41.6134 200.136C42.0134 200.328 42.4152 200.524 42.7541 200.713C42.1549 200.122 41.3896 199.402 40.4874 198.616C39.6897 197.539 38.8651 196.489 38.0938 195.385C36.4034 192.889 34.8145 190.312 33.3062 187.681C33.7567 187.559 34.0932 187.454 34.2477 187.403C35.2627 187.177 43.1617 185.248 45.1335 179.369C47.2422 173.082 46.8733 165.694 46.8733 165.694C46.8733 165.694 38.5649 169.062 36.4562 175.348C35.1393 179.275 34.5631 183.009 34.3164 185.259C34.6976 184.305 35.2275 183.168 35.9388 182.038C37.675 179.279 39.8166 177.626 39.8166 177.626C39.8166 177.626 39.1435 180.447 37.4078 183.206C36.2524 185.043 34.9208 186.384 34.1573 187.08C33.7978 187.009 33.3109 186.888 32.7781 186.74C32.3752 186.024 31.9711 185.307 31.581 184.581C32.1308 184.928 32.6354 185.277 33.0712 185.603C32.4433 184.79 31.5728 183.731 30.5408 182.586C28.6307 178.875 26.8885 175.064 25.3173 171.178C25.5804 171.137 25.7866 171.101 25.8964 171.08C26.9108 170.992 34.8257 170.137 37.49 164.593C40.3388 158.663 40.9226 151.317 40.9226 151.317C40.9226 151.317 32.4269 153.538 29.5781 159.467C27.7989 163.17 26.7634 166.783 26.2371 168.971C26.7287 168.081 27.3884 167.028 28.223 166.006C30.26 163.511 32.5508 162.164 32.5508 162.164C32.5508 162.164 31.5376 164.861 29.5 167.355C28.1443 169.016 26.6806 170.164 25.85 170.749C25.6133 170.667 25.3284 170.56 25.0101 170.431C24.7516 169.782 24.5085 169.127 24.2594 168.474C24.5067 168.701 24.7716 168.933 24.9837 169.146C24.6459 168.552 24.2165 167.836 23.7208 167.053C23.6374 166.827 23.5464 166.604 23.4641 166.378L20.9772 158.58C20.5026 156.893 20.1225 155.185 19.7466 153.476C21.3596 153.522 28.4774 153.44 31.6092 148.595C35.1523 143.113 36.6853 135.931 36.6853 135.931C36.6853 135.931 28.1572 136.998 24.6142 142.48C22.401 145.903 20.9214 149.335 20.122 151.429C20.7164 150.614 21.4947 149.661 22.4386 148.762C24.7417 146.567 27.1399 145.539 27.1399 145.539C27.1399 145.539 25.8025 148.07 23.4988 150.265C22.0339 151.661 20.5519 152.568 19.6515 153.056C19.4735 152.247 19.2985 151.436 19.1064 150.631C18.8303 149.303 18.4515 147.986 18.2594 146.652L17.7137 142.649L17.1657 138.657L16.9589 137.157C19.5734 137.396 24.8016 137.348 27.8471 133.739C32.0233 128.788 34.4844 121.893 34.4844 121.893C34.4844 121.893 26.0773 121.825 21.9011 126.775C19.608 129.493 17.8647 132.288 16.7575 134.259C16.6318 131.668 16.5073 129.086 16.3833 126.518C16.2899 124.557 16.3957 122.507 16.465 120.482C19.1669 120.919 23.3143 120.993 26.2712 118.277C31.0054 113.929 34.3464 107.44 34.3464 107.44C34.3464 107.44 26.2095 106.287 21.4759 110.635C19.5587 112.396 17.9634 114.211 16.6976 115.78C16.9748 111.855 17.4065 107.979 18.0526 104.182C20.6118 104.856 24.277 105.208 27.285 103.072C32.485 99.3803 36.6354 93.4012 36.6354 93.4012C36.6354 93.4012 28.905 91.2428 23.7044 94.9348C21.9452 96.1837 20.3933 97.5008 19.0782 98.7142C19.8259 95.1605 20.7117 91.6821 21.7302 88.3005C24.1208 89.2682 27.611 90.0417 30.8157 88.3162C36.3881 85.3156 41.2604 79.9367 41.2604 79.9367C41.2604 79.9367 34.0521 76.8707 28.4797 79.8707C26.6054 80.8805 24.9049 81.9877 23.4618 83.0167C24.4439 80.2143 25.5011 77.4767 26.6453 74.8337C26.9343 74.2147 27.2045 73.5964 27.48 72.9769C29.6697 74.2492 33.0612 75.5372 36.5291 74.1809C42.3764 71.8931 47.876 67.1873 47.876 67.1873C47.876 67.1873 41.2845 63.3257 35.436 65.6129C33.2756 66.4582 31.3009 67.4446 29.6586 68.3552C30.7012 66.3899 31.7296 64.4509 32.7411 62.5463C33.5904 61.151 34.4257 59.7784 35.2639 58.4233C37.2016 59.9686 40.4474 61.8096 44.179 60.8412C50.2084 59.2773 56.2349 55.3054 56.2349 55.3054C56.2349 55.3054 50.3347 50.763 44.3053 52.3269C41.8354 52.968 39.5629 53.8045 37.7297 54.5698C38.3717 53.6132 39.0237 52.6734 39.6991 51.7675C40.2924 50.9269 40.8798 50.0945 41.4601 49.2714C42.061 48.4635 42.7077 47.7034 43.3185 46.9299C43.8871 46.2322 44.4398 45.5357 44.9902 44.8468C46.6278 46.6073 49.6551 49.0177 53.6275 48.474C59.7491 47.6363 66.2009 44.4472 66.2009 44.4472C66.2009 44.4472 61.0514 39.3402 54.9303 40.1784C52.1409 40.5605 49.5535 41.2062 47.5541 41.7972C49.8736 39.2713 52.0064 36.784 54.2901 34.705C55.0801 33.9414 55.8261 33.2192 56.582 32.4883C57.8907 34.3923 60.582 37.3265 64.733 37.2489C70.8599 37.1346 77.6341 34.7715 77.6341 34.7715C77.6341 34.7715 73.2822 29.2147 67.1553 29.329C64.1139 29.3862 61.2681 29.7747 59.1606 30.1515C59.8549 29.5594 60.5662 28.9528 61.2282 28.3869C63.3956 26.4479 65.5307 24.8717 67.4561 23.4408C68.3248 22.7881 69.1366 22.1773 69.9189 21.5887C70.9145 23.5767 73.1718 26.865 77.3557 27.2815C83.4015 27.8835 90.3936 26.382 90.3936 26.382C90.3936 26.382 86.8729 20.488 80.8265 19.8854C77.7339 19.578 74.7971 19.6352 72.6526 19.7635C72.6714 19.7513 72.6943 19.7367 72.7125 19.7244C74.289 18.6878 75.63 17.8058 76.7172 17.0912C77.9383 16.3597 78.8312 15.8248 79.3968 15.4865C81.9331 15.5868 86.8447 15.5752 92.2685 14.4709C100.149 12.8656 106.263 2.96932 106.263 2.96932C106.263 2.96932 97.7546 1.27184 89.8744 2.87718C83.8644 4.10101 79.8826 10.7142 78.3272 13.7896C77.7451 14.1343 76.8359 14.6727 75.5994 15.4048C74.9198 15.847 74.1063 16.3749 73.2329 16.9425C74.6191 15.6633 76.1856 14.104 77.6875 12.3003C81.5595 7.64942 79.8902 1 79.8902 1C79.8902 1 73.8555 4.81558 69.983 9.46592C66.827 13.2558 68.3906 18.0152 69.0772 19.6474C69.062 19.6579 69.0496 19.6655 69.0338 19.6754C68.1556 20.3276 67.2217 21.0206 66.2349 21.7527C64.2531 23.2081 62.0546 24.8157 59.8472 26.7687C59.5483 27.0213 59.2193 27.2984 58.9139 27.5568C60.1703 26.0478 61.6229 24.1449 62.9456 22.0099C66.158 16.8281 63.5489 10.2814 63.5489 10.2814C63.5489 10.2814 58.0581 14.8763 54.8463 20.0592C52.1697 24.3788 54.5644 29.1278 55.4378 30.5919C54.5597 31.4319 53.681 32.2719 52.7582 33.1545C50.3471 35.3292 48.098 37.9419 45.6328 40.5879C46.8293 38.7772 48.3823 36.1989 49.6739 33.2729C52.1562 27.6531 48.6137 21.3403 48.6137 21.3403C48.6137 21.3403 43.7649 26.6346 41.2827 32.2544C39.0906 37.2186 42.6759 42.0037 43.5441 43.0542C42.8809 43.8715 42.2149 44.7004 41.5288 45.5328C40.9033 46.3168 40.2413 47.0874 39.6251 47.907C39.0295 48.7417 38.4275 49.5852 37.8189 50.4375C36.3846 52.3415 35.0395 54.3797 33.7103 56.4832C33.6968 56.4797 33.675 56.4756 33.6621 56.4721C33.4524 55.6099 33.1546 53.9993 33.2457 52.0522C33.3825 49.1268 34.3464 46.5583 34.3464 46.5583C34.3464 46.5583 35.0882 48.7342 34.9508 51.6602C34.895 52.8583 34.7 53.9935 34.4891 54.9192C35.4742 52.9832 36.9843 49.7054 38.0416 45.9843C39.7332 40.0279 35.275 34.0808 35.275 34.0808C35.275 34.0808 31.1593 39.9877 29.4671 45.9441C27.8853 51.5149 32.7846 56.1273 33.4266 56.7013C33.4465 56.7241 33.483 56.7637 33.5129 56.7976C32.569 58.2973 31.6304 59.8239 30.6747 61.3767C29.6051 63.3659 28.5179 65.3883 27.4136 67.4417C26.7863 68.6188 26.2224 69.8427 25.665 71.0793C25.5493 71.0665 25.4095 71.0542 25.312 71.0414C24.9772 70.1991 24.4474 68.6171 24.26 66.6512C23.9787 63.6961 24.5807 61.0022 24.5807 61.0022C24.5807 61.0022 25.6392 63.0988 25.9211 66.0545C26.0362 67.2649 26.0022 68.4275 25.9235 69.383C26.6377 67.3215 27.6891 63.8495 28.2195 59.9861C29.0706 53.8016 23.7284 48.3579 23.7284 48.3579C23.7284 48.3579 20.4309 54.7798 19.5798 60.9637C18.7845 66.7475 24.3798 70.7982 25.1082 71.2992C25.1722 71.3558 25.2914 71.4562 25.4383 71.5757C25.0953 72.3382 24.7563 73.1006 24.3957 73.8636C22.63 77.9002 21.0289 82.1376 19.6203 86.5283C19.4159 86.5324 19.2039 86.5377 19.0435 86.5353C18.5848 85.7332 17.8218 84.2137 17.3496 82.2677C16.6406 79.3434 16.8603 76.5737 16.8603 76.5737C16.8603 76.5737 18.2306 78.5442 18.9402 81.4685C19.2309 82.6667 19.3637 83.8351 19.4212 84.8017C19.8453 82.6503 20.4062 79.0459 20.3869 75.1137C20.3551 68.8189 14.1801 64.0175 14.1801 64.0175C14.1801 64.0175 11.776 70.8477 11.8083 77.1425C11.8376 83.0295 18.0673 86.4058 18.875 86.8188C18.9713 86.8836 19.1581 87.0037 19.4153 87.1572C17.8482 92.1312 16.5372 97.3072 15.5657 102.65C15.5622 102.669 15.5598 102.689 15.5557 102.708C15.4112 102.728 15.2456 102.754 15.1258 102.767C14.5466 102.023 13.5557 100.602 12.7974 98.7188C11.6591 95.8879 11.4817 93.0955 11.4817 93.0955C11.4817 93.0955 13.1516 94.8916 14.2899 97.7219C14.7569 98.8816 15.06 100.031 15.2579 100.989C15.376 98.7883 15.4236 95.1208 14.8362 91.1973C13.8958 84.9177 6.96008 80.8968 6.96008 80.8968C6.96008 80.8968 5.51514 88.0158 6.45494 94.2954C7.33483 100.168 14.1208 102.76 14.9959 103.07C15.0841 103.114 15.2491 103.191 15.457 103.282C14.6124 107.864 14.0838 112.568 13.7548 117.334C13.5375 115.1 13.0517 111.663 11.9604 108.057C10.1049 101.925 2.50603 98.8157 2.50603 98.8157C2.50603 98.8157 2.06667 106.092 3.92277 112.224C5.56624 117.657 12.1437 119.47 13.6244 119.814C13.5357 122.063 13.3807 124.292 13.4676 126.644C13.5064 127.628 13.5445 128.623 13.5833 129.611C13.1181 128.296 12.5607 126.893 11.894 125.475C9.141 119.623 1 117.539 1 117.539C1 117.539 1.5909 124.831 4.34333 130.682C6.32513 134.895 11.2644 136.297 13.8805 136.753C13.8817 136.769 13.8811 136.786 13.8823 136.802L14.1425 138.867L14.667 143.008L14.6858 143.155C14.5548 142.949 14.4291 142.743 14.2923 142.536C10.6887 137.095 2.14831 136.122 2.14831 136.122C2.14831 136.122 3.76242 143.288 7.36654 148.729C9.56685 152.051 13.6374 153.076 16.4826 153.372C16.9114 155.395 17.3284 157.423 17.8706 159.42L18.0086 159.866C13.4048 156.049 5.96155 156.204 5.96155 156.204C5.96155 156.204 8.5642 163.106 12.9507 168.023C15.3349 170.696 18.9766 171.355 21.8107 171.404C22.5231 173.255 23.2861 175.085 24.0744 176.903C18.966 174.252 12.1278 175.324 12.1278 175.324C12.1278 175.324 15.6638 181.834 20.7457 186.128C23.3525 188.33 26.8603 188.595 29.6639 188.335C30.5743 189.994 31.5141 191.633 32.4938 193.245C27.0083 191.341 20.2858 193.328 20.2858 193.328C20.2858 193.328 24.6847 199.331 30.364 202.916C33.332 204.789 36.9943 204.533 39.816 203.863C41.0442 205.463 42.3082 207.022 43.5922 208.558C37.5934 206.764 30.213 210.032 30.213 210.032C30.213 210.032 35.3925 215.423 41.5658 218.226C45.0525 219.808 49.0437 218.799 51.8636 217.621C53.3215 219.084 54.797 220.519 56.303 221.899C56.4792 222.054 56.6619 222.198 56.8387 222.351C56.7406 222.321 56.6466 222.288 56.5474 222.257C49.9917 220.298 41.8607 225.254 41.8607 225.254C41.8607 225.254 47.7326 229.936 54.2872 231.896C58.3864 233.121 62.7213 231.085 65.4009 229.388C66.4382 230.108 67.4708 230.826 68.4975 231.539C69.8937 232.478 71.2529 233.443 72.6244 234.375C71.657 234.154 70.6414 233.954 69.59 233.79C62.7688 232.726 55.2093 238.807 55.2093 238.807C55.2093 238.807 61.6751 242.694 68.4963 243.757C73.3163 244.508 77.9384 241.045 80.2379 238.947C80.5304 239.117 80.8323 239.29 81.1231 239.46C83.183 240.749 85.3968 241.677 87.5184 242.703C88.4888 243.147 89.4409 243.611 90.3919 244.065C88.494 243.762 86.2867 243.517 83.9167 243.475C76.9539 243.349 70.131 250.498 70.131 250.498C70.131 250.498 77.0867 253.507 84.0494 253.631C89.5842 253.731 94.2039 248.519 95.8709 246.372C97.3076 246.909 98.7519 247.45 100.154 247.972C101.187 248.357 102.211 248.74 103.225 249.118C104.256 249.441 105.295 249.708 106.314 250.001C107.529 250.341 108.697 250.667 109.882 250.999C107.53 250.761 103.651 250.549 99.3564 251.069C92.3842 251.911 86.4664 260.047 86.4664 260.047C86.4664 260.047 93.7939 262.105 100.765 261.262C106.999 260.508 111.235 253.16 112.065 251.609C112.146 251.631 112.232 251.655 112.313 251.678C114.349 252.238 115.943 252.7 117.839 253.265C119.711 253.813 121.53 254.347 123.3 254.865C121.141 255.075 118.507 255.469 115.728 256.209C108.887 258.032 104.037 267.051 104.037 267.051C104.037 267.051 111.606 268.098 118.448 266.275C123.572 264.908 126.702 259.075 127.953 256.229C128.037 256.254 128.128 256.28 128.212 256.304C134.739 258.186 140.451 259.768 145.197 260.99C149.951 262.206 153.702 263.092 156.4 263.545C157.047 263.683 157.711 263.737 158.236 263.815C158.78 263.883 159.192 263.959 159.702 263.947C160.625 263.939 161.101 263.936 161.101 263.936L160.46 259.098Z" fill="url(#paint2_linear_26_960)" stroke="#FBE0F9"/>
<defs>
<filter id="filter0_d_26_960" x="74.6101" y="46.2363" width="148.476" height="161.996" filterUnits="userSpaceOnUse" color-interpolation-filters="sRGB">
<feFlood flood-opacity="0" result="BackgroundImageFix"/>
<feColorMatrix in="SourceAlpha" type="matrix" values="0 0 0 0 0 0 0 0 0 0 0 0 0 0 0 0 0 0 127 0" result="hardAlpha"/>
<feOffset dy="4"/>
<feGaussianBlur stdDeviation="2"/>
<feComposite in2="hardAlpha" operator="out"/>
<feColorMatrix type="matrix" values="0 0 0 0 0 0 0 0 0 0 0 0 0 0 0 0 0 0 0.25 0"/>
<feBlend mode="normal" in2="BackgroundImageFix" result="effect1_dropShadow_26_960"/>
<feBlend mode="normal" in="SourceGraphic" in2="effect1_dropShadow_26_960" result="shape"/>
</filter>
<linearGradient id="paint0_linear_26_960" x1="148.848" y1="-11.9092" x2="148.848" y2="269.241" gradientUnits="userSpaceOnUse">
<stop offset="0.125" stop-color="#C5B102" stop-opacity="0.92"/>
</linearGradient>
<linearGradient id="paint1_linear_26_960" x1="212.269" y1="-11.9089" x2="212.269" y2="269.24" gradientUnits="userSpaceOnUse">
<stop stop-color="#9E4784"/>
<stop offset="1" stop-color="#004444"/>
</linearGradient>
<linearGradient id="paint2_linear_26_960" x1="81.0504" y1="-11.9089" x2="81.0504" y2="269.24" gradientUnits="userSpaceOnUse">
<stop stop-color="#9E4784"/>
<stop offset="1" stop-color="#044E58"/>
</linearGradient>
</defs>
</svg>
