<svg width="342" height="342" viewBox="0 0 342 342" fill="none" xmlns="http://www.w3.org/2000/svg">
<g filter="url(#filter0_f_26_962)">
<circle cx="171" cy="171" r="167" fill="#050400" fill-opacity="0.76"/>
</g>
<mask id="path-2-inside-1_26_962" fill="white">
<path d="M338 171C338 263.232 263.232 338 171 338C78.7684 338 4 263.232 4 171C4 78.7684 78.7684 4 171 4C263.232 4 338 78.7684 338 171ZM19.9901 171C19.9901 254.4 87.5995 322.01 171 322.01C254.4 322.01 322.01 254.4 322.01 171C322.01 87.5995 254.4 19.9901 171 19.9901C87.5995 19.9901 19.9901 87.5995 19.9901 171Z"/>
</mask>
<g filter="url(#filter1_i_26_962)">
<path d="M338 171C338 263.232 263.232 338 171 338C78.7684 338 4 263.232 4 171C4 78.7684 78.7684 4 171 4C263.232 4 338 78.7684 338 171ZM19.9901 171C19.9901 254.4 87.5995 322.01 171 322.01C254.4 322.01 322.01 254.4 322.01 171C322.01 87.5995 254.4 19.9901 171 19.9901C87.5995 19.9901 19.9901 87.5995 19.9901 171Z" fill="#0A3FC7" fill-opacity="0.74"/>
</g>
<path d="M338 171C338 263.232 263.232 338 171 338C78.7684 338 4 263.232 4 171C4 78.7684 78.7684 4 171 4C263.232 4 338 78.7684 338 171ZM19.9901 171C19.9901 254.4 87.5995 322.01 171 322.01C254.4 322.01 322.01 254.4 322.01 171C322.01 87.5995 254.4 19.9901 171 19.9901C87.5995 19.9901 19.9901 87.5995 19.9901 171Z" stroke="#EAE7F4" stroke-opacity="0.35" stroke-width="2" mask="url(#path-2-inside-1_26_962)"/>
<mask id="path-3-inside-2_26_962" fill="white">
<path d="M170.5 329.291C170.5 331.892 168.391 334.007 165.792 333.932C139.012 333.161 112.806 325.819 89.4925 312.521C64.8147 298.445 44.2305 278.182 29.7687 253.728C15.3068 229.275 7.46642 201.475 7.02017 173.068C6.57393 144.662 13.5372 116.629 27.2239 91.7333C40.9105 66.8374 60.848 45.9375 85.0715 31.0933C109.295 16.2492 136.968 7.97306 165.364 7.08068C193.76 6.1883 221.899 12.7104 247.007 26.0043C270.726 38.563 290.967 56.7557 305.967 78.9532C307.424 81.1079 306.768 84.0219 304.572 85.4154V85.4154C302.376 86.8089 299.472 86.1539 298.013 84.0018C283.891 63.1847 264.873 46.1202 242.6 34.3273C218.938 21.7991 192.421 15.6527 165.66 16.4936C138.9 17.3346 112.82 25.134 89.9922 39.1232C67.1639 53.1123 48.3748 72.8084 35.4766 96.2702C22.5783 119.732 16.0161 146.15 16.4366 172.92C16.8572 199.69 24.2459 225.889 37.8748 248.934C51.5037 271.979 70.9022 291.076 94.1585 304.341C116.05 316.828 140.649 323.742 165.792 324.51C168.391 324.59 170.5 326.691 170.5 329.291V329.291Z"/>
</mask>
<g filter="url(#filter2_i_26_962)">
<path d="M170.5 329.291C170.5 331.892 168.391 334.007 165.792 333.932C139.012 333.161 112.806 325.819 89.4925 312.521C64.8147 298.445 44.2305 278.182 29.7687 253.728C15.3068 229.275 7.46642 201.475 7.02017 173.068C6.57393 144.662 13.5372 116.629 27.2239 91.7333C40.9105 66.8374 60.848 45.9375 85.0715 31.0933C109.295 16.2492 136.968 7.97306 165.364 7.08068C193.76 6.1883 221.899 12.7104 247.007 26.0043C270.726 38.563 290.967 56.7557 305.967 78.9532C307.424 81.1079 306.768 84.0219 304.572 85.4154V85.4154C302.376 86.8089 299.472 86.1539 298.013 84.0018C283.891 63.1847 264.873 46.1202 242.6 34.3273C218.938 21.7991 192.421 15.6527 165.66 16.4936C138.9 17.3346 112.82 25.134 89.9922 39.1232C67.1639 53.1123 48.3748 72.8084 35.4766 96.2702C22.5783 119.732 16.0161 146.15 16.4366 172.92C16.8572 199.69 24.2459 225.889 37.8748 248.934C51.5037 271.979 70.9022 291.076 94.1585 304.341C116.05 316.828 140.649 323.742 165.792 324.51C168.391 324.59 170.5 326.691 170.5 329.291V329.291Z" fill="#BB92F0"/>
</g>
<path d="M170.5 329.291C170.5 331.892 168.391 334.007 165.792 333.932C139.012 333.161 112.806 325.819 89.4925 312.521C64.8147 298.445 44.2305 278.182 29.7687 253.728C15.3068 229.275 7.46642 201.475 7.02017 173.068C6.57393 144.662 13.5372 116.629 27.2239 91.7333C40.9105 66.8374 60.848 45.9375 85.0715 31.0933C109.295 16.2492 136.968 7.97306 165.364 7.08068C193.76 6.1883 221.899 12.7104 247.007 26.0043C270.726 38.563 290.967 56.7557 305.967 78.9532C307.424 81.1079 306.768 84.0219 304.572 85.4154V85.4154C302.376 86.8089 299.472 86.1539 298.013 84.0018C283.891 63.1847 264.873 46.1202 242.6 34.3273C218.938 21.7991 192.421 15.6527 165.66 16.4936C138.9 17.3346 112.82 25.134 89.9922 39.1232C67.1639 53.1123 48.3748 72.8084 35.4766 96.2702C22.5783 119.732 16.0161 146.15 16.4366 172.92C16.8572 199.69 24.2459 225.889 37.8748 248.934C51.5037 271.979 70.9022 291.076 94.1585 304.341C116.05 316.828 140.649 323.742 165.792 324.51C168.391 324.59 170.5 326.691 170.5 329.291V329.291Z" stroke="#BA8BF5" stroke-opacity="0.26" stroke-width="2" mask="url(#path-3-inside-2_26_962)"/>
<defs>
<filter id="filter0_f_26_962" x="0" y="0" width="342" height="342" filterUnits="userSpaceOnUse" color-interpolation-filters="sRGB">
<feFlood flood-opacity="0" result="BackgroundImageFix"/>
<feBlend mode="normal" in="SourceGraphic" in2="BackgroundImageFix" result="shape"/>
<feGaussianBlur stdDeviation="2" result="effect1_foregroundBlur_26_962"/>
</filter>
<filter id="filter1_i_26_962" x="4" y="4" width="334" height="338" filterUnits="userSpaceOnUse" color-interpolation-filters="sRGB">
<feFlood flood-opacity="0" result="BackgroundImageFix"/>
<feBlend mode="normal" in="SourceGraphic" in2="BackgroundImageFix" result="shape"/>
<feColorMatrix in="SourceAlpha" type="matrix" values="0 0 0 0 0 0 0 0 0 0 0 0 0 0 0 0 0 0 127 0" result="hardAlpha"/>
<feOffset dy="4"/>
<feGaussianBlur stdDeviation="2"/>
<feComposite in2="hardAlpha" operator="arithmetic" k2="-1" k3="1"/>
<feColorMatrix type="matrix" values="0 0 0 0 0 0 0 0 0 0 0 0 0 0 0 0 0 0 0.25 0"/>
<feBlend mode="normal" in2="shape" result="effect1_innerShadow_26_962"/>
</filter>
<filter id="filter2_i_26_962" x="7" y="6.99998" width="299.746" height="330.934" filterUnits="userSpaceOnUse" color-interpolation-filters="sRGB">
<feFlood flood-opacity="0" result="BackgroundImageFix"/>
<feBlend mode="normal" in="SourceGraphic" in2="BackgroundImageFix" result="shape"/>
<feColorMatrix in="SourceAlpha" type="matrix" values="0 0 0 0 0 0 0 0 0 0 0 0 0 0 0 0 0 0 127 0" result="hardAlpha"/>
<feOffset dy="4"/>
<feGaussianBlur stdDeviation="2"/>
<feComposite in2="hardAlpha" operator="arithmetic" k2="-1" k3="1"/>
<feColorMatrix type="matrix" values="0 0 0 0 0 0 0 0 0 0 0 0 0 0 0 0 0 0 0.25 0"/>
<feBlend mode="normal" in2="shape" result="effect1_innerShadow_26_962"/>
</filter>
</defs>
</svg>
