<svg width="409" height="116" viewBox="0 0 409 116" fill="none" xmlns="http://www.w3.org/2000/svg">
<path d="M107.212 47.2314H75.1722C74.9403 47.231 74.7144 47.1662 74.5259 47.0461C74.3374 46.9259 74.1958 46.7565 74.1207 46.5613L63.9607 18.9209C63.9115 18.7764 63.8115 18.6496 63.6755 18.5593C63.5394 18.469 63.3744 18.4198 63.2046 18.419C63.0296 18.4144 62.8577 18.461 62.7152 18.5516C62.5728 18.6423 62.4677 18.772 62.4161 18.9209L52.4096 46.3826C52.3346 46.5785 52.1926 46.7486 52.0036 46.8692C51.8145 46.9898 51.5879 47.0549 51.3552 47.0553H19.7677C19.5953 47.0554 19.4274 47.1042 19.2881 47.1946C19.1488 47.285 19.0453 47.4123 18.9925 47.5583C18.9396 47.7043 18.9402 47.8615 18.994 48.0072C19.0479 48.1529 19.1523 48.2796 19.2922 48.3693L44.9875 64.8489C45.1785 64.9704 45.3209 65.1429 45.3942 65.3414C45.4675 65.5399 45.4678 65.754 45.3951 65.9526L35.6486 93.183C35.5956 93.3284 35.5956 93.4851 35.6486 93.6305C35.7016 93.776 35.805 93.9028 35.9439 93.9929C36.0828 94.083 36.2501 94.1317 36.422 94.1321C36.5939 94.1324 36.7615 94.0844 36.9009 93.995L62.5047 76.388C62.6952 76.2671 62.9233 76.2019 63.1574 76.2014C63.388 76.2009 63.613 76.2643 63.8012 76.3827L89.5822 94.4444C89.7235 94.5325 89.8925 94.5784 90.065 94.5756C90.2374 94.5729 90.4044 94.5215 90.542 94.4289C90.6796 94.3363 90.7806 94.2072 90.8305 94.0603C90.8804 93.9134 90.8766 93.7562 90.8198 93.6113L81.1707 66.239C81.0935 66.0377 81.0912 65.8197 81.1641 65.6171C81.237 65.4146 81.3812 65.2383 81.5753 65.1143L107.684 48.5585C107.824 48.469 107.928 48.3425 107.982 48.197C108.036 48.0515 108.037 47.8946 107.984 47.7488C107.932 47.6029 107.829 47.4755 107.69 47.3849C107.551 47.2944 107.384 47.2452 107.212 47.2445V47.2314Z" fill="#FFC738"/>
<g style="mix-blend-mode:multiply" opacity="0.5">
<path d="M19.3128 48.3693L45.0082 64.8462C45.2211 64.9816 45.3729 65.1801 45.4364 65.406C45.4872 65.5863 45.48 65.7757 45.4158 65.9526L35.6693 93.1829C35.613 93.3281 35.6114 93.4856 35.6647 93.6316C35.718 93.7776 35.8233 93.9043 35.9646 93.9923L63.5 59.5247L19.0116 47.5651C18.9579 47.7101 18.9581 47.8667 19.0124 48.0116C19.0667 48.1565 19.172 48.2819 19.3128 48.3693Z" fill="#FFC738"/>
<path d="M62.7704 18.5294C62.6107 18.6207 62.4924 18.7594 62.4367 18.9209L52.4303 46.3826C52.3487 46.601 52.1835 46.787 51.9636 46.9081L63.5088 59.5221L63.2046 18.419C63.0513 18.4203 62.9013 18.4585 62.7704 18.5294Z" fill="#FFC738"/>
<path d="M63.8219 76.3827L89.6029 94.4444C89.7429 94.5342 89.9118 94.5812 90.0844 94.5784C90.2569 94.5756 90.4237 94.523 90.5599 94.4286L63.5 59.5247L63.2047 76.2093C63.4255 76.2095 63.641 76.27 63.8219 76.3827Z" fill="#FFC738"/>
<path d="M108.009 47.7359L63.5 59.5247L81.1884 65.5899C81.2634 65.3988 81.4026 65.2327 81.5872 65.1143L107.696 48.5585C107.843 48.4716 107.954 48.3437 108.01 48.1948C108.067 48.0459 108.067 47.8845 108.009 47.7359Z" fill="#FFC738"/>
</g>
<path d="M219.362 60.1305H192.856C186.493 60.1374 180.392 62.6675 175.892 67.1657C171.391 71.6641 168.858 77.7635 168.848 84.1266L168.739 87.5306C168.736 87.6416 168.756 87.7521 168.796 87.8555C168.836 87.959 168.897 88.0534 168.974 88.1331C169.052 88.213 169.144 88.2763 169.246 88.32C169.348 88.3636 169.458 88.3864 169.569 88.3869H242.431C242.646 88.3871 242.854 88.3032 243.009 88.153C243.164 88.0028 243.254 87.7984 243.261 87.5827L243.37 84.1646V84.1385C243.363 77.7732 240.831 71.6707 236.331 67.1699C231.83 62.6691 225.727 60.1374 219.362 60.1305Z" fill="#4BB3FD"/>
<g style="mix-blend-mode:multiply" opacity="0.5">
<path d="M182.533 84.1266C182.922 69.7256 192.835 61.9689 206.591 60.1305H192.856C186.493 60.1374 180.392 62.6675 175.892 67.1657C171.391 71.6641 168.858 77.7635 168.848 84.1266L168.739 87.5306C168.736 87.6416 168.756 87.7521 168.796 87.8555C168.836 87.959 168.897 88.0534 168.974 88.1331C169.052 88.213 169.144 88.2763 169.246 88.32C169.348 88.3636 169.458 88.3864 169.569 88.3869H182.45L182.533 84.1266Z" fill="#4BB3FD"/>
</g>
<path d="M219.547 23.9039C216.886 20.7317 213.193 18.5984 209.115 17.8788C205.038 17.1591 200.838 17.8992 197.251 19.9689C193.666 22.0386 190.923 25.3056 189.507 29.196C188.09 33.0868 188.09 37.352 189.506 41.2427C190.921 45.1337 193.663 48.4012 197.248 50.4716C200.834 52.542 205.034 53.283 209.112 52.5642C213.189 51.8455 216.883 49.713 219.545 46.5413C222.206 43.3695 223.665 39.3617 223.665 35.2212C223.667 31.0816 222.209 27.0742 219.547 23.9039Z" fill="#FFC738"/>
<g style="mix-blend-mode:multiply" opacity="0.5">
<path d="M194.341 35.2212C194.346 31.0626 195.822 27.0401 198.506 23.8639C201.19 20.6878 204.911 18.5629 209.01 17.8646C206.608 17.4561 204.147 17.5508 201.783 18.1427C199.419 18.7345 197.203 19.8107 195.277 21.303C193.35 22.7952 191.754 24.6712 190.59 26.8121C189.426 28.9529 188.719 31.3122 188.514 33.7405C188.308 36.1688 188.609 38.6133 189.398 40.9192C190.186 43.2251 191.444 45.3424 193.093 47.1369C194.742 48.9314 196.745 50.3639 198.976 51.3443C201.207 52.3244 203.618 52.8309 206.055 52.8316C207.043 52.8299 208.029 52.7457 209.003 52.5801C204.905 51.879 201.187 49.7526 198.504 46.5766C195.821 43.4004 194.347 39.3787 194.341 35.2212Z" fill="#FFC738"/>
</g>
<path d="M378.418 30.5212H301.582C299.136 30.5212 297.154 32.5038 297.154 34.9494V88.5395C297.154 90.9851 299.136 92.9677 301.582 92.9677H378.418C380.864 92.9677 382.847 90.9851 382.847 88.5395V34.9494C382.847 32.5038 380.864 30.5212 378.418 30.5212Z" fill="#EBE6EF"/>
<g style="mix-blend-mode:multiply" opacity="0.5">
<path d="M300.091 88.5395V34.9494C300.091 34.3679 300.206 33.7921 300.428 33.2548C300.651 32.7176 300.977 32.2294 301.388 31.8182C302.219 30.9878 303.345 30.5212 304.519 30.5212H301.582C300.407 30.5212 299.281 30.9878 298.451 31.8182C297.62 32.6487 297.154 33.775 297.154 34.9494V88.5395C297.154 89.7139 297.62 90.8403 298.451 91.6707C299.281 92.5012 300.407 92.9677 301.582 92.9677H304.519C303.345 92.9677 302.219 92.5012 301.388 91.6707C300.558 90.8403 300.091 89.7139 300.091 88.5395Z" fill="#EBE6EF"/>
</g>
<path d="M350.484 102.275L347.336 99.5656L345.607 92.9449H334.384L332.655 99.5656L329.516 102.275C329.41 102.366 329.334 102.488 329.299 102.623C329.264 102.758 329.271 102.901 329.319 103.032C329.368 103.163 329.455 103.276 329.57 103.356C329.685 103.436 329.821 103.479 329.961 103.479H350.058C350.196 103.475 350.33 103.43 350.442 103.348C350.553 103.267 350.638 103.154 350.684 103.024C350.73 102.893 350.736 102.752 350.7 102.618C350.664 102.485 350.589 102.365 350.484 102.275Z" fill="#EBE6EF"/>
<g style="mix-blend-mode:multiply" opacity="0.5">
<path d="M335.246 99.6112L336.989 92.9449H334.384L332.655 99.5656L329.516 102.275C329.41 102.366 329.334 102.488 329.299 102.623C329.264 102.758 329.271 102.901 329.319 103.032C329.368 103.163 329.455 103.276 329.57 103.356C329.685 103.436 329.821 103.479 329.961 103.479H330.763L335.246 99.6112Z" fill="#EBE6EF"/>
</g>
<path d="M376.941 36.4263H303.056V79.5189H376.941V36.4263Z" fill="#4BB3FD"/>
<g style="mix-blend-mode:multiply" opacity="0.5">
<path d="M342.632 86.265C342.633 86.7858 342.48 87.2952 342.191 87.7287C341.902 88.1621 341.491 88.5002 341.011 88.7002C340.53 88.9001 340 88.9529 339.489 88.8518C338.978 88.7508 338.509 88.5004 338.14 88.1325C337.772 87.7645 337.521 87.2955 337.419 86.7848C337.317 86.274 337.369 85.7445 337.568 85.2632C337.767 84.782 338.104 84.3706 338.537 84.0812C338.97 83.7917 339.479 83.6372 340 83.6372C340.697 83.6372 341.366 83.9139 341.86 84.4066C342.353 84.8993 342.631 85.5676 342.632 86.265Z" fill="#EBE6EF"/>
</g>
</svg>
